{
  "accessors": [
    {
      "bufferView": 2,
      "componentType": 5126,
      "count": 65532,
      "max": [
        49.999996185302734,
        49.999996185302734,
        2.7243692874908447
      ],
      "min": [
        -50.000003814697266,
        -50.000003814697266,
        0.0
      ],
      "type": "VEC3"
    },
    {
      "bufferView": 2,
      "byteOffset": 786384,
      "componentType": 5126,
      "count": 65532,
      "max": [
        0.9100306034088135,
        0.8998069763183594,
        1.0
      ],
      "min": [
        -0.9041404128074646,
        -0.9251980185508728,
        0.3060465455055237
      ],
      "type": "VEC3"
    },
    {
      "bufferView": 3,
      "componentType": 5126,
      "count": 65532,
      "max": [
        1.0,
        0.22574101388454437,
        0.9093111157417297,
        1.0
      ],
      "min": [
        0.37007346749305725,
        -0.1353524625301361,
        -0.9290022850036621,
        1.0
      ],
      "type": "VEC4"
    },
    {
      "bufferView": 1,
      "componentType": 5126,
      "count": 65532,
      "max": [
        0.9999999403953552,
        0.9999999403953552
      ],
      "min": [
        0.0,
        0.0
      ],
      "type": "VEC2"
    },
    {
      "bufferView": 0,
      "componentType": 5125,
      "count": 385053,
      "type": "SCALAR"
    },
    {
      "bufferView": 2,
      "byteOffset": 1572768,
      "componentType": 5126,
      "count": 65532,
      "max": [
        41.92707824707031,
        33.593746185302734,
        2.865677833557129
      ],
      "min": [
        -41.66667556762695,
        -19.270837783813477,
        0.0
      ],
      "type": "VEC3"
    },
    {
      "bufferView": 2,
      "byteOffset": 2359152,
      "componentType": 5126,
      "count": 65532,
      "max": [
        0.895523190498352,
        0.8897832632064819,
        1.0
      ],
      "min": [
        -0.8953317999839783,
        -0.8869967460632324,
        0.343619704246521
      ],
      "type": "VEC3"
    },
    {
      "bufferView": 3,
      "byteOffset": 1048512,
      "componentType": 5126,
      "count": 65532,
      "max": [
        1.0,
        0.17452877759933472,
        0.9185411334037781,
        1.0
      ],
      "min": [
        0.3952837288379669,
        -0.24661263823509216,
        -0.898505449295044,
        1.0
      ],
      "type": "VEC4"
    },
    {
      "bufferView": 1,
      "byteOffset": 524256,
      "componentType": 5126,
      "count": 65532,
      "max": [
        0.9192707538604736,
        0.8359374403953552
      ],
      "min": [
        0.08333331346511841,
        0.30729156732559204
      ],
      "type": "VEC2"
    },
    {
      "bufferView": 0,
      "byteOffset": 1540212,
      "componentType": 5125,
      "count": 389748,
      "type": "SCALAR"
    },
    {
      "bufferView": 2,
      "byteOffset": 3145536,
      "componentType": 5126,
      "count": 18991,
      "max": [
        41.92708206176758,
        33.593746185302734,
        2.5129334926605225
      ],
      "min": [
        -41.66667556762695,
        -41.66666793823242,
        0.0
      ],
      "type": "VEC3"
    },
    {
      "bufferView": 2,
      "byteOffset": 3373428,
      "componentType": 5126,
      "count": 18991,
      "max": [
        0.8670203685760498,
        0.8499609231948853,
        1.0
      ],
      "min": [
        -0.872664749622345,
        -0.8544814586639404,
        0.41544121503829956
      ],
      "type": "VEC3"
    },
    {
      "bufferView": 3,
      "byteOffset": 2097024,
      "componentType": 5126,
      "count": 18991,
      "max": [
        1.0,
        0.2867911458015442,
        0.8760935664176941,
        1.0
      ],
      "min": [
        0.482067346572876,
        -0.09269707649946213,
        -0.8707709312438965,
        1.0
      ],
      "type": "VEC4"
    },
    {
      "bufferView": 1,
      "byteOffset": 1048512,
      "componentType": 5126,
      "count": 18991,
      "max": [
        0.9192707538604736,
        0.8359372615814209
      ],
      "min": [
        0.08333328366279602,
        0.08333328366279602
      ],
      "type": "VEC2"
    },
    {
      "bufferView": 0,
      "byteOffset": 3099204,
      "componentType": 5125,
      "count": 109935,
      "type": "SCALAR"
    }
  ],
  "asset": {
    "extras": {
      "author": "Sim387 (https://sketchfab.com/350rdlc.sl)",
      "license": "CC-BY-4.0 (http://creativecommons.org/licenses/by/4.0/)",
      "source": "https://sketchfab.com/3d-models/field-streaks-d2011291f3b746a3b8ee0455664736ea",
      "title": "Field streaks"
    },
    "generator": "Sketchfab-15.16.0",
    "version": "2.0"
  },
  "bufferViews": [
    {
      "buffer": 0,
      "byteLength": 3538944,
      "name": "floatBufferViews",
      "target": 34963
    },
    {
      "buffer": 0,
      "byteLength": 1200440,
      "byteOffset": 3538944,
      "byteStride": 8,
      "name": "floatBufferViews",
      "target": 34962
    },
    {
      "buffer": 0,
      "byteLength": 3601320,
      "byteOffset": 4739384,
      "byteStride": 12,
      "name": "floatBufferViews",
      "target": 34962
    },
    {
      "buffer": 0,
      "byteLength": 2400880,
      "byteOffset": 8340704,
      "byteStride": 16,
      "name": "floatBufferViews",
      "target": 34962
    }
  ],
  "buffers": [
    {
      "byteLength": 10741584,
      "uri": "scene.bin"
    }
  ],
  "images": [
    {
      "uri": "textures/Scene_-_Root_baseColor.png"
    },
    {
      "uri": "textures/Scene_-_Root_metallicRoughness.png"
    },
    {
      "uri": "textures/Scene_-_Root_normal.png"
    }
  ],
  "materials": [
    {
      "doubleSided": true,
      "name": "Scene_-_Root",
      "normalTexture": {
        "index": 2
      },
      "occlusionTexture": {
        "index": 1
      },
      "pbrMetallicRoughness": {
        "baseColorTexture": {
          "index": 0
        },
        "metallicFactor": 0.0,
        "metallicRoughnessTexture": {
          "index": 1
        }
      }
    }
  ],
  "meshes": [
    {
      "name": "DirtMesh__0",
      "primitives": [
        {
          "attributes": {
            "NORMAL": 1,
            "POSITION": 0,
            "TANGENT": 2,
            "TEXCOORD_0": 3
          },
          "indices": 4,
          "material": 0,
          "mode": 4
        }
      ]
    },
    {
      "name": "DirtMesh__0",
      "primitives": [
        {
          "attributes": {
            "NORMAL": 6,
            "POSITION": 5,
            "TANGENT": 7,
            "TEXCOORD_0": 8
          },
          "indices": 9,
          "material": 0,
          "mode": 4
        }
      ]
    },
    {
      "name": "DirtMesh__0",
      "primitives": [
        {
          "attributes": {
            "NORMAL": 11,
            "POSITION": 10,
            "TANGENT": 12,
            "TEXCOORD_0": 13
          },
          "indices": 14,
          "material": 0,
          "mode": 4
        }
      ]
    }
  ],
  "nodes": [
    {
      "children": [
        1
      ],
      "matrix": [
        1.0,
        0.0,
        0.0,
        0.0,
        0.0,
        2.220446049250313e-16,
        -1.0,
        0.0,
        0.0,
        1.0,
        2.220446049250313e-16,
        0.0,
        0.0,
        0.0,
        0.0,
        1.0
      ],
      "name": "Sketchfab_model"
    },
    {
      "children": [
        2
      ],
      "matrix": [
        0.009999999776482582,
        0.0,
        0.0,
        0.0,
        0.0,
        0.0,
        0.009999999776482582,
        0.0,
        0.0,
        -0.009999999776482582,
        0.0,
        0.0,
        0.0,
        0.0,
        0.0,
        1.0
      ],
      "name": "5b8bc9b6eb854cc2a047237ea2fac127.fbx"
    },
    {
      "children": [
        3
      ],
      "name": "RootNode"
    },
    {
      "children": [
        4,
        5,
        6
      ],
      "matrix": [
        1.0,
        0.0,
        0.0,
        0.0,
        0.0,
        2.220446049250313e-16,
        -1.0,
        0.0,
        0.0,
        1.0,
        2.220446049250313e-16,
        0.0,
        0.0,
        0.0,
        0.0,
        1.0
      ],
      "name": "DirtMesh"
    },
    {
      "mesh": 0,
      "name": "DirtMesh__0"
    },
    {
      "mesh": 1,
      "name": "DirtMesh__0"
    },
    {
      "mesh": 2,
      "name": "DirtMesh__0"
    }
  ],
  "samplers": [
    {
      "magFilter": 9729,
      "minFilter": 9987,
      "wrapS": 10497,
      "wrapT": 10497
    }
  ],
  "scene": 0,
  "scenes": [
    {
      "name": "Sketchfab_Scene",
      "nodes": [
        0
      ]
    }
  ],
  "textures": [
    {
      "sampler": 0,
      "source": 0
    },
    {
      "sampler": 0,
      "source": 1
    },
    {
      "sampler": 0,
      "source": 2
    }
  ]
}
