{
  "accessors": [
    {
      "bufferView": 2,
      "componentType": 5126,
      "count": 105,
      "max": [
        1.3241300582885742,
        1.1662800312042236,
        1.9968500137329102
      ],
      "min": [
        -1.3241300582885742,
        -1.1662800312042236,
        0.0
      ],
      "type": "VEC3"
    },
    {
      "bufferView": 2,
      "byteOffset": 1260,
      "componentType": 5126,
      "count": 105,
      "max": [
        0.9937552809715271,
        0.9991024136543274,
        1.0
      ],
      "min": [
        -0.9937552809715271,
        -0.9991024136543274,
        0.042360950261354446
      ],
      "type": "VEC3"
    },
    {
      "bufferView": 1,
      "componentType": 5126,
      "count": 105,
      "max": [
        2.6513400077819824,
        3.742889881134033
      ],
      "min": [
        -1.7497199773788452,
        -2.8359999656677246
      ],
      "type": "VEC2"
    },
    {
      "bufferView": 0,
      "componentType": 5125,
      "count": 480,
      "type": "SCALAR"
    },
    {
      "bufferView": 2,
      "byteOffset": 2520,
      "componentType": 5126,
      "count": 65532,
      "max": [
        4.017370223999023,
        7.192009925842285,
        8.762619972229004
      ],
      "min": [
        -4.773910045623779,
        -10.159720420837402,
        -0.13343000411987305
      ],
      "type": "VEC3"
    },
    {
      "bufferView": 2,
      "byteOffset": 788904,
      "componentType": 5126,
      "count": 65532,
      "max": [
        0.9998837113380432,
        0.9996931552886963,
        1.0
      ],
      "min": [
        -0.9999080300331116,
        -0.9999551177024841,
        -0.9999995827674866
      ],
      "type": "VEC3"
    },
    {
      "bufferView": 1,
      "byteOffset": 840,
      "componentType": 5126,
      "count": 65532,
      "max": [
        0.0,
        0.0
      ],
      "min": [
        0.0,
        0.0
      ],
      "type": "VEC2"
    },
    {
      "bufferView": 0,
      "byteOffset": 1920,
      "componentType": 5125,
      "count": 733611,
      "type": "SCALAR"
    },
    {
      "bufferView": 2,
      "byteOffset": 1575288,
      "componentType": 5126,
      "count": 65532,
      "max": [
        6.699850082397461,
        6.717589855194092,
        7.755149841308594
      ],
      "min": [
        -4.121359825134277,
        -10.045869827270508,
        -0.11214999854564667
      ],
      "type": "VEC3"
    },
    {
      "bufferView": 2,
      "byteOffset": 2361672,
      "componentType": 5126,
      "count": 65532,
      "max": [
        0.9999977946281433,
        0.9998909831047058,
        0.9999998211860657
      ],
      "min": [
        -0.9999976754188538,
        -0.9999091625213623,
        -0.999999463558197
      ],
      "type": "VEC3"
    },
    {
      "bufferView": 1,
      "byteOffset": 525096,
      "componentType": 5126,
      "count": 65532,
      "max": [
        0.0,
        0.0
      ],
      "min": [
        0.0,
        0.0
      ],
      "type": "VEC2"
    },
    {
      "bufferView": 0,
      "byteOffset": 2936364,
      "componentType": 5125,
      "count": 733422,
      "type": "SCALAR"
    },
    {
      "bufferView": 2,
      "byteOffset": 3148056,
      "componentType": 5126,
      "count": 65532,
      "max": [
        6.721920013427734,
        10.160840034484863,
        7.632540225982666
      ],
      "min": [
        -4.723090171813965,
        -0.2109300047159195,
        -0.1892399936914444
      ],
      "type": "VEC3"
    },
    {
      "bufferView": 2,
      "byteOffset": 3934440,
      "componentType": 5126,
      "count": 65532,
      "max": [
        0.9999788403511047,
        0.9999961256980896,
        1.0
      ],
      "min": [
        -0.999889075756073,
        -0.9999818205833435,
        -0.9999999403953552
      ],
      "type": "VEC3"
    },
    {
      "bufferView": 1,
      "byteOffset": 1049352,
      "componentType": 5126,
      "count": 65532,
      "max": [
        0.0,
        0.0
      ],
      "min": [
        0.0,
        0.0
      ],
      "type": "VEC2"
    },
    {
      "bufferView": 0,
      "byteOffset": 5870052,
      "componentType": 5125,
      "count": 733449,
      "type": "SCALAR"
    },
    {
      "bufferView": 2,
      "byteOffset": 4720824,
      "componentType": 5126,
      "count": 63828,
      "max": [
        -0.0074800001457333565,
        9.776650428771973,
        7.67786979675293
      ],
      "min": [
        -6.726970195770264,
        -7.449850082397461,
        -0.16338999569416046
      ],
      "type": "VEC3"
    },
    {
      "bufferView": 2,
      "byteOffset": 5486760,
      "componentType": 5126,
      "count": 63828,
      "max": [
        0.9999271631240845,
        0.999991238117218,
        1.0
      ],
      "min": [
        -0.999997079372406,
        -0.9999669194221497,
        -1.0
      ],
      "type": "VEC3"
    },
    {
      "bufferView": 1,
      "byteOffset": 1573608,
      "componentType": 5126,
      "count": 63828,
      "max": [
        0.0,
        0.0
      ],
      "min": [
        0.0,
        0.0
      ],
      "type": "VEC2"
    },
    {
      "bufferView": 0,
      "byteOffset": 8803848,
      "componentType": 5125,
      "count": 714654,
      "type": "SCALAR"
    }
  ],
  "asset": {
    "extras": {
      "author": "Surya (https://sketchfab.com/Swanoff)",
      "license": "CC-BY-4.0 (http://creativecommons.org/licenses/by/4.0/)",
      "source": "https://sketchfab.com/3d-models/hay-stack-0701f843017048deb23c0e037a9c614d",
      "title": "Hay Stack"
    },
    "generator": "Sketchfab-12.68.0",
    "version": "2.0"
  },
  "bufferViews": [
    {
      "buffer": 0,
      "byteLength": 11662464,
      "name": "floatBufferViews",
      "target": 34963
    },
    {
      "buffer": 0,
      "byteLength": 2084232,
      "byteOffset": 11662464,
      "byteStride": 8,
      "name": "floatBufferViews",
      "target": 34962
    },
    {
      "buffer": 0,
      "byteLength": 6252696,
      "byteOffset": 13746696,
      "byteStride": 12,
      "name": "floatBufferViews",
      "target": 34962
    }
  ],
  "buffers": [
    {
      "byteLength": 19999392,
      "uri": "scene.bin"
    }
  ],
  "extensionsUsed": [
    "KHR_materials_unlit"
  ],
  "images": [
    {
      "uri": "textures/Material_baseColor.jpeg"
    },
    {
      "uri": "textures/material_baseColor.jpeg"
    }
  ],
  "materials": [
    {
      "doubleSided": true,
      "extensions": {
        "KHR_materials_unlit": {}
      },
      "name": "Material",
      "pbrMetallicRoughness": {
        "baseColorFactor": [
          0.8309620648,
          0.8309620648,
          0.8309620648,
          1.0
        ],
        "baseColorTexture": {
          "index": 0
        },
        "metallicFactor": 0.0
      }
    },
    {
      "doubleSided": true,
      "extensions": {
        "KHR_materials_unlit": {}
      },
      "name": "material",
      "pbrMetallicRoughness": {
        "baseColorFactor": [
          0.8492547477,
          0.8492547477,
          0.8492547477,
          1.0
        ],
        "baseColorTexture": {
          "index": 1
        },
        "metallicFactor": 0.0
      }
    }
  ],
  "meshes": [
    {
      "name": "Hay Stack_0",
      "primitives": [
        {
          "attributes": {
            "NORMAL": 1,
            "POSITION": 0,
            "TEXCOORD_0": 2
          },
          "indices": 3,
          "material": 1,
          "mode": 4
        }
      ]
    },
    {
      "name": "Mesh_0",
      "primitives": [
        {
          "attributes": {
            "NORMAL": 5,
            "POSITION": 4,
            "TEXCOORD_0": 6
          },
          "indices": 7,
          "material": 0,
          "mode": 4
        }
      ]
    },
    {
      "name": "Mesh_0",
      "primitives": [
        {
          "attributes": {
            "NORMAL": 9,
            "POSITION": 8,
            "TEXCOORD_0": 10
          },
          "indices": 11,
          "material": 0,
          "mode": 4
        }
      ]
    },
    {
      "name": "Mesh_0",
      "primitives": [
        {
          "attributes": {
            "NORMAL": 13,
            "POSITION": 12,
            "TEXCOORD_0": 14
          },
          "indices": 15,
          "material": 0,
          "mode": 4
        }
      ]
    },
    {
      "name": "Mesh_0",
      "primitives": [
        {
          "attributes": {
            "NORMAL": 17,
            "POSITION": 16,
            "TEXCOORD_0": 18
          },
          "indices": 19,
          "material": 0,
          "mode": 4
        }
      ]
    }
  ],
  "nodes": [
    {
      "children": [
        1
      ],
      "matrix": [
        1.0,
        0.0,
        0.0,
        0.0,
        0.0,
        2.220446049250313e-16,
        -1.0,
        0.0,
        0.0,
        1.0,
        2.220446049250313e-16,
        0.0,
        0.0,
        0.0,
        0.0,
        1.0
      ],
      "name": "Sketchfab_model"
    },
    {
      "children": [
        2,
        4,
        6,
        8,
        10,
        12
      ],
      "name": "Root"
    },
    {
      "children": [
        3
      ],
      "matrix": [
        4.8683499999999995,
        0.0,
        0.0,
        0.0,
        0.0,
        8.47435,
        0.0,
        0.0,
        0.0,
        0.0,
        4.33844,
        0.0,
        0.0,
        0.0,
        0.0,
        1.0
      ],
      "name": "Hay Stack"
    },
    {
      "mesh": 0,
      "name": "Hay Stack_0"
    },
    {
      "children": [
        5
      ],
      "matrix": [
        0.6066000000000001,
        0.26734,
        -0.7487100000000001,
        0.0,
        -0.22590000000000005,
        0.96091,
        0.16009000000000004,
        0.0,
        0.7622400000000001,
        0.07202000000000001,
        0.6432800000000001,
        0.0,
        20.15032,
        0.0,
        16.66876,
        1.0
      ],
      "name": "Sun"
    },
    {
      "name": "Sun"
    },
    {
      "children": [
        7
      ],
      "matrix": [
        0.32611000000000007,
        0.6803800000000001,
        0.6563000000000001,
        0.0,
        -0.09825000000000003,
        0.7148900000000001,
        -0.6923000000000001,
        0.0,
        -0.94021,
        0.16129000000000004,
        0.2999800000000001,
        0.0,
        -19.30646,
        2.17495,
        9.44279,
        1.0
      ],
      "name": "Hemi"
    },
    {
      "name": "Hemi"
    },
    {
      "children": [
        9
      ],
      "matrix": [
        1.0,
        0.0,
        0.0,
        0.0,
        0.0,
        0.5977700000000001,
        0.8016700000000001,
        0.0,
        0.0,
        -0.8016700000000001,
        0.5977700000000001,
        0.0,
        0.0,
        -24.34955,
        16.57227,
        1.0
      ],
      "name": "Hemi.002"
    },
    {
      "name": "Hemi.002"
    },
    {
      "children": [
        11
      ],
      "matrix": [
        -0.9996900000000001,
        0.024960000000000006,
        0.0,
        0.0,
        -0.014920000000000001,
        -0.5975900000000001,
        0.8016700000000001,
        0.0,
        0.020010000000000003,
        0.80142,
        0.5977700000000001,
        0.0,
        0.0,
        20.74119,
        16.57227,
        1.0
      ],
      "name": "Hemi.003"
    },
    {
      "name": "Hemi.003"
    },
    {
      "children": [
        13,
        14,
        15,
        16
      ],
      "name": "Mesh"
    },
    {
      "mesh": 1,
      "name": "Mesh_0"
    },
    {
      "mesh": 2,
      "name": "Mesh_0"
    },
    {
      "mesh": 3,
      "name": "Mesh_0"
    },
    {
      "mesh": 4,
      "name": "Mesh_0"
    }
  ],
  "samplers": [
    {
      "magFilter": 9729,
      "minFilter": 9987,
      "wrapS": 10497,
      "wrapT": 10497
    }
  ],
  "scene": 0,
  "scenes": [
    {
      "name": "Sketchfab_Scene",
      "nodes": [
        0
      ]
    }
  ],
  "textures": [
    {
      "sampler": 0,
      "source": 0
    },
    {
      "sampler": 0,
      "source": 1
    }
  ]
}
