{
  "accessors": [
    {
      "bufferView": 2,
      "componentType": 5126,
      "count": 65532,
      "max": [
        72.07717895507813,
        22.85598373413086,
        16.152881622314453
      ],
      "min": [
        -84.5098648071289,
        -128.21437072753906,
        -1.9342260360717773
      ],
      "type": "VEC3"
    },
    {
      "bufferView": 2,
      "byteOffset": 786384,
      "componentType": 5126,
      "count": 65532,
      "max": [
        0.999824583530426,
        0.9999236464500427,
        0.999125599861145
      ],
      "min": [
        -0.9997462630271912,
        -0.9999870657920837,
        -0.9999996423721313
      ],
      "type": "VEC3"
    },
    {
      "bufferView": 1,
      "componentType": 5126,
      "count": 65532,
      "max": [
        0.9994949102401733,
        1.0
      ],
      "min": [
        0.00026451380108483136,
        0.0
      ],
      "type": "VEC2"
    },
    {
      "bufferView": 0,
      "componentType": 5125,
      "count": 346470,
      "type": "SCALAR"
    },
    {
      "bufferView": 2,
      "byteOffset": 1572768,
      "componentType": 5126,
      "count": 65533,
      "max": [
        69.89347839355469,
        89.4521255493164,
        16.198944091796875
      ],
      "min": [
        -78.59639739990234,
        -91.0303955078125,
        -37.21784591674805
      ],
      "type": "VEC3"
    },
    {
      "bufferView": 2,
      "byteOffset": 2359164,
      "componentType": 5126,
      "count": 65533,
      "max": [
        0.9999848008155823,
        0.9997920393943787,
        0.9999067187309265
      ],
      "min": [
        -0.9997288584709167,
        -0.9999139308929443,
        -0.9999945759773254
      ],
      "type": "VEC3"
    },
    {
      "bufferView": 1,
      "byteOffset": 524256,
      "componentType": 5126,
      "count": 65533,
      "max": [
        0.9953826665878296,
        1.0
      ],
      "min": [
        0.00010606646537780762,
        0.0
      ],
      "type": "VEC2"
    },
    {
      "bufferView": 0,
      "byteOffset": 1385880,
      "componentType": 5125,
      "count": 329256,
      "type": "SCALAR"
    },
    {
      "bufferView": 2,
      "byteOffset": 3145560,
      "componentType": 5126,
      "count": 23129,
      "max": [
        73.20958709716797,
        86.10453796386719,
        16.17737579345703
      ],
      "min": [
        -77.13927459716797,
        -34.60810852050781,
        -36.72315979003906
      ],
      "type": "VEC3"
    },
    {
      "bufferView": 2,
      "byteOffset": 3423108,
      "componentType": 5126,
      "count": 23129,
      "max": [
        0.9993330836296082,
        0.9998924732208252,
        0.999353289604187
      ],
      "min": [
        -0.9997797608375549,
        -0.999945878982544,
        -0.9999933838844299
      ],
      "type": "VEC3"
    },
    {
      "bufferView": 1,
      "byteOffset": 1048520,
      "componentType": 5126,
      "count": 23129,
      "max": [
        1.0,
        0.9993876218795776
      ],
      "min": [
        0.003702709684148431,
        0.0
      ],
      "type": "VEC2"
    },
    {
      "bufferView": 0,
      "byteOffset": 2702904,
      "componentType": 5125,
      "count": 83094,
      "type": "SCALAR"
    }
  ],
  "asset": {
    "extras": {
      "author": "PLUPS (https://sketchfab.com/PLUPS)",
      "license": "CC-BY-NC-ND-4.0 (http://creativecommons.org/licenses/by-nc-nd/4.0/)",
      "source": "https://sketchfab.com/3d-models/a-small-ponds-topography-d48321c0380a448da7840862b24f8a58",
      "title": "A small pond's topography"
    },
    "generator": "Sketchfab-12.65.0",
    "version": "2.0"
  },
  "bufferViews": [
    {
      "buffer": 0,
      "byteLength": 3035280,
      "name": "floatBufferViews",
      "target": 34963
    },
    {
      "buffer": 0,
      "byteLength": 1233552,
      "byteOffset": 3035280,
      "byteStride": 8,
      "name": "floatBufferViews",
      "target": 34962
    },
    {
      "buffer": 0,
      "byteLength": 3700656,
      "byteOffset": 4268832,
      "byteStride": 12,
      "name": "floatBufferViews",
      "target": 34962
    }
  ],
  "buffers": [
    {
      "byteLength": 7969488,
      "uri": "scene.bin"
    }
  ],
  "extensionsUsed": [
    "KHR_materials_unlit"
  ],
  "images": [
    {
      "uri": "textures/material0_baseColor.jpeg"
    }
  ],
  "materials": [
    {
      "doubleSided": true,
      "extensions": {
        "KHR_materials_unlit": {}
      },
      "name": "material0",
      "pbrMetallicRoughness": {
        "baseColorTexture": {
          "index": 0
        },
        "metallicFactor": 0.0
      }
    }
  ],
  "meshes": [
    {
      "name": "Model_material0_0",
      "primitives": [
        {
          "attributes": {
            "NORMAL": 1,
            "POSITION": 0,
            "TEXCOORD_0": 2
          },
          "indices": 3,
          "material": 0,
          "mode": 4
        }
      ]
    },
    {
      "name": "Model_material0_0",
      "primitives": [
        {
          "attributes": {
            "NORMAL": 5,
            "POSITION": 4,
            "TEXCOORD_0": 6
          },
          "indices": 7,
          "material": 0,
          "mode": 4
        }
      ]
    },
    {
      "name": "Model_material0_0",
      "primitives": [
        {
          "attributes": {
            "NORMAL": 9,
            "POSITION": 8,
            "TEXCOORD_0": 10
          },
          "indices": 11,
          "material": 0,
          "mode": 4
        }
      ]
    }
  ],
  "nodes": [
    {
      "children": [
        1
      ],
      "matrix": [
        0.27589692745304006,
        -0.011960193202382308,
        0.10172126301485562,
        0.0,
        0.10242197783129825,
        0.03221750438624677,
        -0.2740093924293632,
        0.0,
        0.0,
        0.29228132084730873,
        0.034365881208575706,
        0.0,
        -18.601104736328125,
        -8.190415382385254,
        -2.7133994102478045,
        1.0
      ],
      "name": "Sketchfab_model"
    },
    {
      "children": [
        2
      ],
      "matrix": [
        1.0,
        0.0,
        0.0,
        0.0,
        0.0,
        -1.0,
        0.0,
        0.0,
        0.0,
        0.0,
        -1.0,
        0.0,
        0.0,
        0.0,
        0.0,
        1.0
      ],
      "name": "model.fbx"
    },
    {
      "children": [
        3
      ],
      "name": "RootNode"
    },
    {
      "children": [
        4,
        5,
        6
      ],
      "name": "Model"
    },
    {
      "mesh": 0,
      "name": "Model_material0_0"
    },
    {
      "mesh": 1,
      "name": "Model_material0_0"
    },
    {
      "mesh": 2,
      "name": "Model_material0_0"
    }
  ],
  "samplers": [
    {
      "magFilter": 9729,
      "minFilter": 9987,
      "wrapS": 10497,
      "wrapT": 10497
    }
  ],
  "scene": 0,
  "scenes": [
    {
      "name": "Sketchfab_Scene",
      "nodes": [
        0
      ]
    }
  ],
  "textures": [
    {
      "sampler": 0,
      "source": 0
    }
  ]
}
