# Blender 4.5.3 LTS
# www.blender.org
o Sphere
v -0.109470 0.145640 -1.273044
v 0.683807 0.529045 -0.560408
v 0.551071 -0.702095 -0.352448
v 0.015588 0.666147 0.007092
v 0.442107 0.934223 -0.129400
v 0.724901 -0.496534 0.746265
v 0.017996 -0.490254 0.093246
v -0.600840 -0.493405 0.529222
v -0.231188 0.668406 0.153844
v -0.127076 0.817841 -0.093033
v -0.779904 -0.139837 -0.977006
v -0.072125 -1.111362 -0.655725
v 0.160309 0.504963 -1.109682
v 0.353266 0.366681 -1.268207
v -0.013487 -0.079930 -1.367131
v 0.338517 0.648873 -0.614729
v 0.404010 -0.226893 -1.404766
v 0.555430 -0.590029 -1.160439
v 0.376370 -0.793539 -0.924868
v 0.167104 0.620181 -0.893302
v 0.142933 0.262924 -1.329337
v 0.299186 -0.038173 -1.426184
v 0.234885 0.600008 -0.392854
v 0.677407 -0.342006 -1.267197
v 0.637647 -0.721279 -0.856914
v 0.031684 0.648457 -0.066275
v 0.410736 -0.826205 -0.618257
v 0.232840 -0.825367 -0.578461
v 0.918511 -0.329098 -0.978310
v 0.553176 0.523654 -1.021411
v 0.697857 0.310945 -1.154651
v 0.132255 0.719251 -0.170892
v 0.666504 0.722084 -0.446872
v 0.980943 -0.332877 -0.644234
v 0.945483 0.096255 -0.961839
v 0.319516 -0.758581 -0.355544
v 0.931602 0.260791 -0.807498
v 0.879243 0.601858 -0.484368
v 0.312339 -0.781681 -0.197266
v 0.958027 0.208500 -0.547720
v 0.322223 0.805594 -0.265630
v 0.772016 -0.630362 -0.502261
v 1.211694 0.652243 -0.138319
v 0.907468 0.776633 -0.331303
v 0.378325 -0.639076 -0.179154
v 0.294514 -0.700419 -0.075499
v 0.285231 -0.399220 0.001397
v 0.629571 0.900650 -0.258649
v 1.023817 0.882393 -0.052846
v 1.264555 0.680676 0.173280
v 0.439133 0.992942 0.115295
v 0.627655 -0.464149 -0.132833
v 0.242108 -0.457970 0.034594
v 1.368711 0.433017 0.063309
v 1.233104 -0.184419 -0.040895
v 1.180705 0.703942 0.414048
v 1.267033 0.450477 0.522745
v 0.689558 -0.508666 0.258149
v 1.384655 0.263721 0.307319
v 0.124748 -0.640771 0.033087
v 1.303678 -0.109726 0.233625
v 0.771689 0.995709 0.058009
v 0.995613 0.900770 0.316815
v 1.182599 0.294729 0.686662
v 1.026693 0.112857 0.791774
v 0.980369 -0.183376 0.682310
v 0.649848 -0.630984 0.293894
v 0.133949 -0.487746 0.070305
v 1.258966 -0.012736 0.505304
v 1.092526 -0.288687 0.442010
v 0.899101 0.492799 0.823803
v 0.756442 -0.321068 0.638301
v 0.618754 -0.735949 0.453286
v 0.408553 -0.107274 0.777711
v 0.202063 -0.769289 0.432160
v 0.458455 -0.767257 0.335719
v 0.746364 0.665549 0.791429
v 0.263781 -0.714973 0.241413
v 0.813654 0.271401 0.895774
v 0.781244 -0.031176 0.849565
v 0.630057 -0.212916 0.758503
v 0.200464 0.878765 0.162429
v 0.536737 -0.626957 0.835593
v 0.442025 -0.762272 0.722436
v 0.463720 0.479449 0.863806
v 0.013481 0.676343 0.092569
v 0.108044 0.271550 0.698194
v 0.195628 -0.754968 0.614932
v 0.263938 -0.653669 0.823541
v 0.014538 -0.535436 0.213853
v 0.394839 0.006615 0.833363
v -0.015174 0.611432 0.291454
v 0.000198 0.301813 0.547758
v -0.006478 -0.538481 0.600538
v 0.008483 -0.078167 0.616167
v 0.128442 -0.402989 0.823971
v -0.039419 -0.508149 0.321094
v -0.050288 0.399660 0.407990
v 0.042105 0.504304 0.544404
v -0.033272 0.594114 0.123585
v -0.275765 0.364422 0.940227
v -0.161016 -0.472598 0.353120
v -0.105119 -0.323707 0.338540
v -0.085110 -0.608603 0.280332
v -0.603489 0.484584 0.977379
v -0.588800 0.264702 1.101400
v -0.472817 -0.420330 0.779914
v -0.210201 -0.596666 0.299182
v -0.140154 -0.646802 0.214651
v -0.037308 -0.583086 0.109994
v -0.180471 0.536686 0.542052
v -0.188327 -0.358996 0.318745
v -0.240414 0.537348 0.264786
v -0.704110 0.595515 0.821640
v -0.933679 0.394954 0.920515
v -0.113378 -0.620197 0.123719
v -0.671947 -0.407482 0.803027
v -0.892461 0.191292 1.048322
v -0.778436 -0.061381 1.081730
v -0.269174 -0.521263 0.278617
v -1.051804 0.000526 0.904350
v -0.873057 -0.391253 0.666396
v -0.557221 0.728224 0.215794
v -1.165311 0.017575 0.454724
v -0.643070 0.670550 0.486201
v -1.137963 0.309926 0.586650
v -1.069293 0.297763 0.273482
v -0.376824 -0.824198 0.074480
v -0.796441 -0.424854 0.392543
v -0.519917 -0.565697 0.192822
v -0.898081 0.821590 -0.086694
v -0.621861 -0.741875 0.025211
v -0.898451 -0.299958 0.241207
v -0.873620 0.681239 0.182044
v -0.313849 0.799995 0.029772
v -0.527042 0.851031 0.042078
v -1.187738 0.599793 -0.261528
v -1.238038 0.141033 0.087311
v -0.836909 -0.559150 -0.171699
v -0.973389 -0.453299 -0.031836
v -0.541448 -0.909836 -0.034962
v -1.184354 0.506821 0.009578
v -0.953703 0.809217 -0.325592
v -1.152728 0.577771 -0.541698
v -1.080691 -0.384286 -0.493029
v -0.859214 -0.730543 -0.265279
v -0.665993 -1.010808 -0.242099
v -1.309897 0.305477 -0.203092
v -1.255136 -0.145913 -0.447378
v -1.312503 0.000855 -0.240015
v -1.248694 -0.177530 -0.139954
v -0.446299 0.906414 -0.178315
v -1.071126 -0.427181 -0.241873
v -1.034128 -0.274108 -0.731166
v -0.874983 0.793816 -0.573681
v -1.301406 0.244192 -0.468142
v -0.754001 -0.342182 -0.857704
v -0.791783 -0.917885 -0.704482
v -0.988089 0.348813 -0.894675
v -1.220375 0.126256 -0.694626
v -0.189718 -0.960416 -0.035020
v -1.075819 0.033744 -0.850185
v -0.921448 -0.658726 -0.576114
v -0.854823 0.138798 -1.002658
v -0.697662 -0.730896 -0.952179
v -0.806331 -0.553894 -0.858290
v -0.868639 0.606315 -0.828834
v -0.563434 0.120499 -1.069906
v -0.406980 -0.197103 -0.969630
v -0.705870 0.422130 -0.997815
v -0.208790 -1.125238 -0.261693
v -0.219261 0.824804 -0.153710
v -0.235096 0.375705 -0.956885
v -0.342193 0.144096 -1.033409
v -0.267981 -0.722938 -1.084603
v 0.007656 -1.089512 -0.423289
v -0.569503 -0.438348 -1.038118
v -0.308811 -0.973347 -0.971460
v -0.282053 -1.144944 -0.722827
v -0.051055 0.704647 -0.198715
v -0.210310 0.769553 -0.607889
v -0.096174 0.417674 -1.089828
v 0.031857 0.584456 -0.157454
v 0.044503 -0.964652 -0.185608
v 0.113840 0.768051 -0.022244
v 0.000910 0.636344 0.048202
v 0.040259 -0.615859 0.057768
v -0.007879 0.714532 -0.003132
v -0.134711 -0.778844 0.073808
v -0.177598 0.826536 0.001532
v 0.014304 -0.834991 -0.022247
v -0.067861 -1.010801 -0.149313
v -0.262557 -0.032423 -1.192644
v -0.044824 0.703773 -0.400705
v 0.150973 -0.947451 -0.627023
v -0.063343 -0.987403 -0.864566
v 0.114814 -0.331677 -1.369610
v 0.091425 0.520514 -0.294140
v -0.000376 -0.561368 -1.194051
v -0.001079 -0.701840 -1.008182
v 0.140859 -0.805443 -0.822705
v 0.335223 -0.524233 -1.284817
v 0.224313 -0.727928 -1.065859
v 0.207472 -0.871005 -0.355241
v 0.540648 0.098956 -1.357625
v 0.444142 0.617505 -0.495558
v 0.477381 0.623289 -0.779367
v 0.152856 -0.872414 -0.194141
v 0.834162 -0.068422 -1.185937
v 0.838837 -0.553472 -0.876183
v 1.019787 -0.131101 -0.777008
v 0.797087 0.441693 -0.738004
v 0.115244 0.749445 -0.081832
v 1.083997 0.493200 -0.426057
v 0.127659 -0.816682 -0.092580
v 0.085418 -0.754892 -0.029744
v 0.878469 -0.332712 -0.292230
v 0.964314 -0.182337 -0.389448
v 1.166987 0.205439 -0.401125
v 1.123578 -0.054522 -0.352699
v 1.318435 0.382592 -0.168848
v 1.344519 0.053620 -0.070321
v 0.270405 0.886714 -0.046302
v 1.067557 -0.299514 -0.163753
v 0.463370 -0.452239 -0.060515
v 0.924623 -0.454635 0.072014
v 0.484997 -0.489265 0.084881
v 0.086362 -0.709652 0.003306
v 1.138839 -0.325090 0.154443
v 0.907897 -0.448518 0.300430
v 0.788222 -0.419700 0.487545
v 1.020350 0.727351 0.607429
v 0.378182 -0.598307 0.105031
v 0.062538 -0.648281 0.030613
v 0.582869 0.999959 0.283702
v 0.757338 -0.581490 0.516397
v 0.790280 0.958984 0.397429
v 0.371919 0.891378 0.479902
v 0.645491 -0.709089 0.661161
v 0.535549 0.832300 0.644594
v 0.449265 -0.809997 0.525083
v 0.069134 -0.486574 0.069166
v 0.056338 0.730083 0.092055
v 0.430623 -0.208658 0.860981
v 0.621478 -0.436275 0.863118
v 0.236863 0.641204 0.679111
v 0.523089 0.179509 0.902940
v 0.284959 0.318760 0.825078
v 0.179690 -0.174016 0.783471
v 0.360685 -0.432581 0.917496
v 0.039265 0.014075 0.568787
v 0.114100 0.753116 0.391711
v 0.037185 -0.641575 0.501972
v 0.040938 -0.476384 0.130638
v 0.154382 -0.019765 0.717908
v -0.129343 0.371310 0.790663
v -0.004800 -0.545116 0.101859
v -0.014689 0.046966 0.719390
v -0.003274 -0.147051 0.599747
v -0.014934 -0.350566 0.653189
v -0.059046 -0.244394 0.535921
v -0.095172 -0.299200 0.447249
v -0.300673 -0.154089 0.973677
v -0.238255 -0.322538 0.756279
v -0.032473 -0.693817 0.072045
v -0.163480 0.072291 0.931558
v -0.424565 0.124043 1.089614
v -0.045419 0.678560 0.087775
v -0.596609 -0.180322 1.056776
v -0.098171 0.416027 0.223709
v -0.079697 0.452758 0.185409
v -0.255705 -0.412240 0.541426
v -0.915093 -0.263806 0.872108
v -0.390657 0.612171 0.293148
v -0.351466 -0.445374 0.366543
v -0.416927 0.628227 0.706900
v -0.110093 0.700928 0.115826
v -1.035480 0.447780 0.713994
v -1.136599 0.142382 0.791957
v -0.397794 -0.536832 0.327850
v -0.857164 0.610798 0.571231
v -0.551790 -0.459831 0.311601
v -0.653411 0.636892 0.302255
v -0.272855 -0.563652 0.161702
v -0.053886 -0.756941 0.057728
v -0.145651 0.776387 0.064224
v -1.105226 -0.157072 0.694218
v -0.959612 0.476823 0.287229
v -1.040231 -0.263122 0.446579
v -1.093046 0.009609 0.255803
v -0.609616 -0.422015 0.214713
v -0.389518 -0.599839 0.149842
v -0.764235 -0.473008 0.108123
v -0.559503 -0.506066 0.108844
v -0.135505 -0.857175 0.030121
v -1.098144 -0.234410 0.108835
v -0.386865 -1.057429 -0.134310
v -0.927805 -0.499766 -0.515649
v -0.713625 0.906932 -0.312176
v -0.420612 -1.151186 -0.335992
v -0.633140 0.849597 -0.614466
v -0.784715 -0.978860 -0.482719
v -1.061429 0.535890 -0.724696
v -0.504983 0.904141 -0.461298
v -0.635325 -0.905366 -0.915229
v -0.643998 0.693210 -0.838113
v -0.522779 -1.150239 -0.573377
v -0.528904 -1.082210 -0.779599
v -0.262554 -1.179206 -0.489995
v -0.504059 -0.742392 -1.058801
v -0.274449 -0.398757 -1.085026
v -0.246507 0.843203 -0.427711
v -0.344379 0.659059 -0.839808
v -0.448189 0.427486 -1.006609
v -0.045247 0.746917 -0.115498
v 0.001664 0.696952 -0.075968
v -0.206988 -0.286564 -1.220453
v -0.121231 0.528383 -0.795381
v -0.018569 0.599119 -0.606715
vn -0.5151 0.3299 -0.7911
vn 0.3947 0.7478 -0.5338
vn 0.3905 -0.8154 0.4274
vn 0.0166 0.9863 0.1639
vn -0.2287 0.9038 -0.3616
vn 0.8399 -0.1759 0.5135
vn 0.6649 -0.6355 0.3925
vn -0.0597 -0.9969 0.0515
vn 0.2531 0.5989 0.7597
vn 0.4229 0.8946 -0.1443
vn -0.2890 -0.3657 -0.8847
vn 0.4144 -0.8718 -0.2613
vn -0.1369 0.8029 -0.5802
vn 0.1215 0.6115 -0.7818
vn -0.3762 0.0187 -0.9263
vn 0.0549 0.9969 0.0561
vn 0.1956 -0.1956 -0.9610
vn 0.3877 -0.6739 -0.6290
vn 0.1468 -0.9336 -0.3270
vn -0.1389 0.9480 -0.2865
vn -0.1797 0.4550 -0.8722
vn 0.0064 0.0946 -0.9955
vn -0.3982 0.8880 -0.2299
vn 0.5349 -0.3304 -0.7776
vn 0.4823 -0.8467 -0.2245
vn 0.0405 0.8883 -0.4575
vn 0.2116 -0.9744 0.0755
vn 0.4994 -0.8656 -0.0377
vn 0.8551 -0.3069 -0.4178
vn 0.3710 0.8123 -0.4500
vn 0.5796 0.5286 -0.6202
vn -0.6540 0.6089 -0.4488
vn 0.0240 0.6396 -0.7684
vn 0.9342 -0.3525 0.0557
vn 0.8881 0.2330 -0.3962
vn 0.5190 -0.8382 0.1672
vn 0.8593 0.4730 -0.1946
vn 0.3238 0.4375 -0.8389
vn 0.7138 -0.6561 0.2450
vn 0.8491 0.1980 -0.4897
vn -0.4017 0.7197 -0.5663
vn 0.6619 -0.7137 0.2293
vn 0.7525 0.5344 -0.3850
vn 0.3788 0.7026 -0.6024
vn 0.5865 -0.5701 0.5753
vn 0.6174 -0.4352 0.6553
vn 0.4515 -0.8921 0.0145
vn 0.0077 0.8509 -0.5253
vn 0.5089 0.8210 -0.2588
vn 0.8275 0.5601 0.0396
vn -0.2464 0.9683 -0.0407
vn 0.3263 -0.9181 0.2250
vn 0.5543 -0.8201 -0.1418
vn 0.9681 0.2348 -0.0879
vn 0.7890 -0.5571 -0.2592
vn 0.7353 0.5851 0.3420
vn 0.8342 0.2834 0.4732
vn 0.5224 -0.8039 -0.2843
vn 0.9792 0.0197 0.2019
vn 0.2153 -0.3548 0.9098
vn 0.8876 -0.4459 0.1153
vn 0.1831 0.9738 -0.1346
vn 0.4954 0.8455 0.1995
vn 0.7142 0.0714 0.6963
vn 0.5298 -0.1781 0.8292
vn 0.4650 -0.5577 0.6876
vn 0.6414 -0.5747 -0.5082
vn -0.0756 -0.9554 0.2855
vn 0.8177 -0.3269 0.4739
vn 0.6065 -0.6957 0.3849
vn 0.3802 0.3035 0.8737
vn 0.6694 -0.3673 0.6457
vn 0.5706 -0.8037 -0.1688
vn -0.1120 0.0659 0.9915
vn -0.3888 -0.9081 -0.1557
vn 0.1914 -0.8886 -0.4169
vn 0.1391 0.5506 0.8231
vn -0.2221 -0.8235 -0.5220
vn 0.2279 0.0455 0.9726
vn 0.1768 -0.3634 0.9147
vn 0.3620 -0.1001 0.9268
vn -0.5738 0.8181 0.0385
vn 0.3117 -0.5070 0.8036
vn 0.0820 -0.8712 0.4840
vn -0.2008 0.3136 0.9281
vn -0.8425 0.5297 -0.0982
vn -0.6903 0.0537 0.7215
vn -0.4504 -0.8422 0.2963
vn -0.3432 -0.5603 0.7539
vn 0.0940 -0.9672 -0.2361
vn -0.2863 -0.2907 0.9130
vn -0.8638 0.4656 0.1925
vn -0.0132 0.5159 0.8565
vn -0.8422 -0.3909 0.3714
vn 0.2312 -0.0148 0.9728
vn -0.5923 -0.0288 0.8052
vn -0.4473 -0.7050 0.5505
vn -0.1740 0.9210 0.3486
vn -0.7856 0.3347 0.5203
vn -0.4588 0.6529 0.6027
vn 0.4952 0.4770 0.7261
vn -0.1745 -0.0956 0.9800
vn -0.2924 -0.7371 0.6093
vn 0.3837 -0.7432 0.5482
vn 0.0190 0.6575 0.7532
vn 0.0220 0.2830 0.9589
vn 0.1881 -0.8661 0.4631
vn -0.4118 -0.6586 0.6298
vn -0.0245 -0.9991 0.0343
vn 0.6330 -0.5766 0.5166
vn 0.5940 0.7964 0.1131
vn 0.1301 -0.6569 0.7427
vn 0.5759 0.7540 0.3160
vn -0.1950 0.8709 0.4511
vn -0.5448 0.5310 0.6490
vn 0.2377 -0.7966 0.5558
vn -0.1518 -0.8591 0.4888
vn -0.4725 0.1772 0.8633
vn -0.2871 -0.2709 0.9188
vn -0.1770 -0.6426 0.7455
vn -0.7441 -0.1980 0.6381
vn -0.4859 -0.8517 0.1963
vn 0.0342 0.7676 0.6401
vn -0.9815 -0.1232 -0.1466
vn -0.0733 0.9971 -0.0182
vn -0.9282 0.3721 0.0070
vn -0.9178 0.3385 0.2075
vn -0.1095 -0.4779 0.8716
vn -0.4073 -0.8923 -0.1950
vn -0.5249 -0.8474 0.0795
vn -0.4367 0.8563 0.2756
vn -0.5605 -0.3147 0.7661
vn -0.6212 -0.7705 0.1430
vn -0.4209 0.6864 0.5930
vn 0.1265 0.8637 0.4880
vn 0.0243 0.8993 0.4367
vn -0.8119 0.5832 0.0249
vn -0.8875 -0.0156 0.4606
vn -0.7077 -0.5861 0.3944
vn -0.5405 -0.7679 0.3438
vn -0.3837 -0.5983 0.7034
vn -0.7882 0.4667 0.4011
vn -0.5390 0.8398 -0.0658
vn -0.7810 0.5344 -0.3231
vn -0.7143 -0.6539 -0.2491
vn -0.8857 -0.2867 0.3651
vn -0.5756 -0.7070 0.4110
vn -0.9743 0.2005 0.1021
vn -0.8979 -0.3738 -0.2324
vn -0.9867 -0.1527 0.0561
vn -0.8793 -0.4310 0.2028
vn 0.1383 0.9807 0.1381
vn -0.6789 -0.7320 0.0579
vn -0.6264 -0.5220 -0.5789
vn -0.4292 0.8233 -0.3715
vn -0.9604 0.1397 -0.2412
vn -0.5811 -0.1918 -0.7909
vn -0.7781 -0.5314 -0.3350
vn -0.5794 0.2523 -0.7750
vn -0.8574 -0.0195 -0.5144
vn 0.1545 -0.6898 0.7073
vn -0.6669 -0.1649 -0.7267
vn -0.9765 -0.1501 -0.1544
vn -0.3940 -0.0051 -0.9191
vn -0.6554 -0.2025 -0.7276
vn -0.8338 0.0409 -0.5506
vn -0.4118 0.5919 -0.6929
vn -0.0124 -0.0403 -0.9991
vn -0.4297 -0.0173 -0.9028
vn -0.2064 0.3491 -0.9141
vn 0.1816 -0.9092 0.3746
vn 0.3246 0.9457 -0.0151
vn -0.1939 0.5815 -0.7901
vn -0.3343 0.2210 -0.9162
vn 0.1055 -0.2122 -0.9715
vn 0.5222 -0.8449 0.1163
vn -0.4068 0.2230 -0.8859
vn 0.0359 -0.6343 -0.7723
vn 0.0663 -0.9253 -0.3735
vn 0.7141 0.6823 -0.1566
vn 0.4359 0.7902 -0.4309
vn -0.4831 0.6743 -0.5584
vn 0.3434 0.8531 -0.3929
vn 0.5512 -0.7124 0.4344
vn -0.6827 0.7102 -0.1716
vn -0.1194 0.8576 0.5003
vn 0.3699 -0.3261 0.8699
vn 0.7373 0.6307 0.2421
vn 0.1935 -0.4122 0.8903
vn 0.1531 0.9411 0.3014
vn 0.4489 -0.5331 0.7171
vn 0.3673 -0.7673 0.5257
vn -0.7228 0.0736 -0.6871
vn 0.7068 0.6986 -0.1114
vn 0.7391 -0.6327 -0.2312
vn 0.4287 -0.6601 -0.6168
vn -0.2189 -0.3229 -0.9208
vn -0.0071 0.9740 -0.2266
vn -0.3736 -0.6181 -0.6917
vn 0.0166 -0.6577 -0.7531
vn 0.3132 -0.8461 -0.4314
vn 0.0768 -0.5806 -0.8106
vn -0.0563 -0.8389 -0.5414
vn 0.6873 -0.7232 0.0675
vn 0.3619 0.2440 -0.8997
vn 0.0068 0.9197 -0.3926
vn 0.2762 0.9514 -0.1363
vn 0.5410 -0.7535 0.3735
vn 0.7355 0.0343 -0.6766
vn 0.7450 -0.6120 -0.2656
vn 0.9914 -0.0347 -0.1261
vn 0.6847 0.7198 -0.1142
vn -0.6663 0.6777 -0.3112
vn 0.5945 0.3278 -0.7343
vn 0.4282 -0.6565 0.6210
vn 0.4704 -0.5026 0.7253
vn 0.6747 -0.7366 -0.0474
vn 0.8712 -0.4093 -0.2712
vn 0.7164 -0.0653 -0.6946
vn 0.6549 -0.3838 -0.6510
vn 0.8921 0.1657 -0.4204
vn 0.9311 -0.2345 -0.2796
vn -0.4947 0.8270 -0.2670
vn 0.5743 -0.7179 -0.3935
vn -0.0273 -0.9361 0.3506
vn 0.3623 -0.9226 -0.1328
vn 0.1279 -0.8314 -0.5407
vn 0.2824 -0.4487 0.8479
vn 0.6624 -0.7491 0.0121
vn 0.3805 -0.9023 0.2026
vn 0.7533 -0.6012 0.2667
vn 0.4989 0.6189 0.6067
vn 0.1281 -0.6136 -0.7792
vn 0.2711 -0.3562 0.8942
vn -0.0661 0.9786 0.1946
vn 0.9144 -0.4037 -0.0294
vn 0.2021 0.9131 0.3542
vn -0.3507 0.8415 0.4110
vn 0.6161 -0.7183 0.3232
vn -0.1018 0.7552 0.6476
vn 0.1152 -0.9931 0.0196
vn 0.1375 -0.6553 0.7428
vn -0.7309 0.6780 -0.0779
vn 0.1073 0.4585 0.8822
vn 0.5236 0.0080 0.8519
vn -0.5199 0.5019 0.6913
vn -0.1314 -0.0900 0.9872
vn -0.4811 0.0728 0.8737
vn -0.4072 0.3169 0.8566
vn -0.0942 -0.0314 0.9951
vn 0.0598 0.1944 0.9791
vn -0.6830 0.6561 0.3210
vn -0.7547 -0.6533 0.0593
vn 0.1627 -0.9290 -0.3325
vn -0.5383 0.1158 0.8348
vn 0.7266 0.4809 0.4906
vn 0.3707 -0.0613 0.9267
vn 0.8741 -0.0371 0.4844
vn -0.0799 -0.2493 0.9651
vn -0.8437 0.0051 0.5369
vn -0.2442 -0.6276 0.7392
vn -0.2677 -0.8907 0.3673
vn 0.4825 -0.4330 0.7613
vn 0.5501 -0.6873 0.4744
vn 0.4820 -0.2960 0.8247
vn 0.6979 -0.0406 0.7150
vn 0.3102 0.0256 0.9503
vn 0.5814 0.5038 0.6389
vn 0.0345 -0.4951 0.8682
vn -0.0700 0.9168 0.3931
vn -0.3460 0.6777 0.6489
vn 0.4441 -0.8843 0.1445
vn -0.5152 -0.6345 0.5762
vn 0.3038 0.8969 0.3213
vn 0.3005 -0.8399 0.4519
vn 0.2855 0.9066 0.3109
vn 0.3486 0.5084 0.7874
vn -0.7278 0.6355 0.2577
vn -0.9154 0.0908 0.3923
vn -0.0311 -0.7054 0.7081
vn -0.4707 0.8811 0.0453
vn -0.3362 -0.9329 0.1293
vn -0.1759 0.9367 0.3026
vn -0.1237 -0.8045 0.5809
vn 0.3708 -0.4066 0.8350
vn 0.2742 0.7383 0.6162
vn -0.8623 -0.4509 0.2305
vn -0.7506 0.6480 0.1293
vn -0.7655 -0.6209 -0.1687
vn -0.9601 -0.2319 0.1560
vn -0.4650 -0.8630 0.1976
vn -0.1125 -0.6874 0.7175
vn -0.2568 -0.8269 0.5002
vn -0.5642 -0.6586 0.4979
vn 0.2338 -0.5437 0.8061
vn -0.7136 -0.4849 0.5056
vn -0.1278 -0.8004 0.5857
vn -0.8628 -0.4541 -0.2221
vn -0.2014 0.9794 -0.0134
vn -0.1991 -0.9435 0.2650
vn -0.0855 0.8964 -0.4349
vn -0.7567 -0.6518 0.0503
vn -0.6757 0.4751 -0.5636
vn 0.0873 0.9697 -0.2280
vn -0.5005 -0.5416 -0.6754
vn -0.1054 0.7014 -0.7049
vn -0.3522 -0.9318 -0.0874
vn -0.3443 -0.8204 -0.4566
vn 0.1007 -0.9947 0.0195
vn -0.2768 -0.2349 -0.9318
vn -0.4374 -0.1520 -0.8863
vn 0.4084 0.9016 -0.1422
vn 0.2698 0.6685 -0.6930
vn 0.1338 0.3478 -0.9280
vn 0.6853 0.6888 -0.2363
vn 0.8273 0.5414 -0.1502
vn -0.6229 -0.2523 -0.7405
vn 0.0420 0.8512 -0.5232
vn 0.2469 0.9472 -0.2046
vt 0.723149 0.254855
vt 0.716726 0.187395
vt 0.763613 0.231723
vt 0.771575 0.175637
vt 0.763216 0.611939
vt 0.717110 0.685037
vt 0.726313 0.632096
vt 0.731391 0.554384
vt 0.705288 0.587044
vt 0.751197 0.480717
vt 0.716944 0.494061
vt 0.762201 0.535552
vt 0.735850 0.427008
vt 0.704269 0.448120
vt 0.718000 0.911799
vt 0.703652 0.828764
vt 0.792127 0.909004
vt 0.775362 0.429124
vt 0.747884 0.360788
vt 0.709966 0.381522
vt 0.719422 0.317344
vt 0.760778 0.303724
vt 0.754726 0.742943
vt 0.666917 0.790095
vt 0.671003 0.735883
vt 0.664184 0.686703
vt 0.688483 0.206638
vt 0.688694 0.293389
vt 0.658402 0.240693
vt 0.671917 0.629932
vt 0.759761 0.119461
vt 0.664412 0.139996
vt 0.662688 0.568617
vt 0.689347 0.521343
vt 0.699263 0.972034
vt 0.671842 0.424652
vt 0.641203 0.911395
vt 0.680056 0.364696
vt 0.679458 0.967035
vt 0.673828 0.992188
vt 0.671875 1.000000
vt 0.652132 0.484847
vt 0.638143 0.181480
vt 0.713475 0.065809
vt 0.634383 0.087457
vt 0.609756 0.668762
vt 0.629072 0.732927
vt 0.619800 0.620687
vt 0.615377 0.563492
vt 0.627507 0.521717
vt 0.629937 0.423908
vt 0.648223 0.312314
vt 0.629984 0.362226
vt 0.594848 0.312933
vt 0.604116 0.467119
vt 0.593423 0.413349
vt 0.606587 0.846492
vt 0.559605 0.791010
vt 0.592668 0.731800
vt 0.592966 0.241681
vt 0.579876 0.672031
vt 0.594494 0.141596
vt 0.583319 0.557700
vt 0.577497 0.196585
vt 0.557921 0.625785
vt 0.552519 0.553638
vt 0.602068 0.059930
vt 0.541498 0.131119
vt 0.549659 0.037207
vt 0.546184 0.487025
vt 0.562886 0.446126
vt 0.592094 0.937935
vt 0.526193 0.900976
vt 0.551414 0.370979
vt 0.544529 0.852075
vt 0.554503 0.714644
vt 0.523460 0.418626
vt 0.527041 0.304528
vt 0.509940 0.723472
vt 0.520698 0.257345
vt 0.517569 0.656327
vt 0.503614 0.197702
vt 0.479372 0.154456
vt 0.507701 0.513095
vt 0.465130 0.061785
vt 0.514234 0.034141
vt 0.504000 0.451355
vt 0.487918 0.356830
vt 0.489556 0.790576
vt 0.933088 0.398497
vt 0.963224 0.383844
vt 0.982921 0.450621
vt 0.944039 0.467832
vt 0.471222 0.252733
vt 0.520475 0.589936
vt 0.476216 0.656086
vt 0.442930 0.310529
vt 0.450923 0.726269
vt 0.449168 0.190187
vt 0.491436 0.595998
vt 0.464805 0.557273
vt 0.422284 0.101918
vt 0.494137 0.037267
vt 0.480636 0.015502
vt 0.484413 0.000153
vt 0.470987 0.477589
vt 0.477858 0.411904
vt 0.436761 0.602306
vt 0.417264 0.569380
vt 0.450432 0.032957
vt 0.458984 0.023437
vt 0.438398 0.426203
vt 0.445134 0.661579
vt 0.411067 0.367332
vt 0.404359 0.321273
vt 0.415850 0.673767
vt 0.430970 0.268861
vt 0.398008 0.208486
vt 0.437580 0.495570
vt 0.396423 0.528546
vt 0.446081 0.363266
vt 0.404447 0.453129
vt 0.454798 0.859893
vt 0.362090 0.805449
vt 0.429546 0.811854
vt 0.365247 0.067176
vt 0.392383 0.030152
vt 0.393897 0.013087
vt 0.390625 0.000000
vt 0.402344 0.046875
vt 0.400391 0.039062
vt 0.370633 0.492077
vt 0.360588 0.431889
vt 0.388223 0.395911
vt 0.373045 0.352490
vt 0.348539 0.378857
vt 0.371030 0.293454
vt 0.363771 0.741919
vt 0.426208 0.762024
vt 0.360985 0.227749
vt 0.398408 0.258493
vt 0.372125 0.678901
vt 0.382561 0.621021
vt 0.368138 0.571599
vt 0.340849 0.319718
vt 0.337423 0.268271
vt 0.325834 0.179626
vt 0.379204 0.154704
vt 0.330133 0.647133
vt 0.334877 0.557117
vt 0.319277 0.505473
vt 0.325982 0.459241
vt 0.322873 0.425158
vt 0.314453 0.054687
vt 0.326898 0.041639
vt 0.335862 0.050381
vt 0.327117 0.942043
vt 0.304415 0.839677
vt 0.392732 0.904686
vt 0.310684 0.367953
vt 0.302494 0.296209
vt 0.301696 0.228697
vt 0.306591 0.729396
vt 0.259844 0.136800
vt 0.305480 0.607133
vt 0.275117 0.619649
vt 0.286422 0.491053
vt 0.295335 0.986440
vt 0.285212 0.953045
vt 0.307765 0.956439
vt 0.297301 0.037152
vt 0.292032 0.019373
vt 0.296875 0.000000
vt 0.287174 0.431115
vt 0.245131 0.854100
vt 0.277409 0.357089
vt 0.264366 0.735535
vt 0.262023 0.036665
vt 0.274934 0.037235
vt 0.273917 0.057419
vt 0.256111 0.465329
vt 0.245667 0.422536
vt 0.250983 0.270803
vt 0.267597 0.212018
vt 0.260148 0.506325
vt 0.248163 0.659249
vt 0.244167 0.521687
vt 0.302307 0.092428
vt 0.195852 0.069932
vt 0.284663 0.063478
vt 0.226346 0.184200
vt 0.195960 0.731878
vt 0.220624 0.638232
vt 0.201293 0.145152
vt 0.203429 0.617198
vt 0.221069 0.524455
vt 0.231218 0.987370
vt 0.244231 0.949401
vt 0.234375 1.000000
vt 0.200845 0.453882
vt 0.248377 0.344472
vt 0.232563 0.365343
vt 0.218820 0.314389
vt 0.230524 0.742465
vt 0.180511 0.818950
vt 0.206461 0.266777
vt 0.203764 0.934948
vt 0.186016 0.868968
vt 0.200953 0.381224
vt 0.178773 0.312183
vt 0.179913 0.216693
vt 0.146613 0.173035
vt 0.189883 0.532533
vt 0.167487 0.451390
vt 0.162532 0.701021
vt 0.134248 0.657874
vt 0.160723 0.624313
vt 0.170486 0.567522
vt 0.149903 0.488967
vt 0.169469 0.042826
vt 0.167716 0.017050
vt 0.171890 0.000682
vt 0.167014 0.950494
vt 0.163268 0.368442
vt 0.106965 0.780853
vt 0.127299 0.271606
vt 0.167305 0.254817
vt 0.138260 0.384238
vt 0.117456 0.333660
vt 0.142520 0.806202
vt 0.123969 0.202250
vt 0.101583 0.716265
vt 0.137254 0.543078
vt 0.123522 0.592250
vt 0.122420 0.922296
vt 0.095188 0.871648
vt 0.096963 0.534708
vt 0.114396 0.501504
vt 0.122150 0.948901
vt 0.108650 0.975609
vt 0.111328 0.992188
vt 0.109375 1.000000
vt 0.120779 0.438121
vt 0.104959 0.393766
vt 0.072948 0.362416
vt 0.077669 0.300894
vt 0.107082 0.249761
vt 0.094191 0.665655
vt 0.097142 0.605623
vt 0.058214 0.252107
vt 0.060431 0.213267
vt 0.049497 0.643218
vt 0.071754 0.726356
vt 0.084486 0.163177
vt 0.076154 0.575721
vt 0.135332 0.088680
vt 0.076634 0.062407
vt 0.060104 0.502403
vt 0.089127 0.463871
vt 0.080078 0.007812
vt 0.078125 0.000000
vt 0.065359 0.936054
vt 0.021313 0.881959
vt 0.066186 0.429891
vt 0.040425 0.411298
vt 0.042153 0.584246
vt 0.028525 0.131289
vt 0.037622 0.055785
vt 0.011244 0.538653
vt 0.036673 0.508688
vt 0.015391 0.436203
vt 0.054249 0.317577
vt 0.028422 0.264805
vt 0.029169 0.706249
vt 0.010589 0.240481
vt 0.001813 0.375460
vt 0.020609 0.325745
vt 0.002783 0.735516
vt 0.006247 0.613941
vt 0.002133 0.163687
vt 0.000000 0.089850
vt 0.002817 0.466645
vt 0.010475 0.931370
vt 0.997660 0.537089
vt 0.972258 0.501474
vt 0.991045 0.362964
vt 0.967333 0.315436
vt 0.999523 0.317997
vt 0.992816 0.237164
vt 0.951480 0.278903
vt 0.985249 0.170886
vt 0.939858 0.196369
vt 0.995431 0.644325
vt 0.982830 0.733399
vt 0.964381 0.644644
vt 0.973426 0.569604
vt 0.947116 0.713923
vt 0.932051 0.636636
vt 0.943615 0.554385
vt 0.916259 0.529124
vt 0.918780 0.358332
vt 0.903399 0.434434
vt 0.910104 0.325712
vt 0.912498 0.240706
vt 0.933728 0.770999
vt 0.909288 0.702910
vt 0.877675 0.741127
vt 0.905537 0.624905
vt 0.892959 0.140736
vt 0.943986 0.119793
vt 0.859119 0.096029
vt 0.963440 0.061798
vt 0.857112 0.682163
vt 0.878376 0.647502
vt 0.867362 0.189974
vt 0.882709 0.583880
vt 0.884633 0.046634
vt 0.892593 0.506807
vt 0.863715 0.532419
vt 0.858508 0.465068
vt 0.909830 0.898219
vt 0.835123 0.825311
vt 0.939482 0.840105
vt 0.864228 0.407594
vt 0.869815 0.359156
vt 0.891973 0.949699
vt 0.831025 0.384546
vt 0.850278 0.324990
vt 0.882848 0.273625
vt 0.804516 0.765650
vt 0.881523 0.789754
vt 0.847016 0.280003
vt 0.842788 0.231874
vt 0.814369 0.699287
vt 0.827690 0.141704
vt 0.849294 0.603145
vt 0.826555 0.531393
vt 0.857422 0.992188
vt 0.861132 0.976589
vt 0.859375 1.000000
vt 0.863773 0.046326
vt 0.856215 0.023725
vt 0.859594 0.009499
vt 0.799044 0.258570
vt 0.809894 0.191870
vt 0.817474 0.618027
vt 0.835045 0.972321
vt 0.808547 0.944294
vt 0.841469 0.946625
vt 0.813494 0.441189
vt 0.770664 0.827192
vt 0.821508 0.319735
vt 0.790460 0.383098
vt 0.788628 0.318026
vt 0.774175 0.682790
vt 0.788099 0.615082
vt 0.800542 0.538220
vt 0.783826 0.490492
vt 0.800630 0.950463
vt 0.744025 0.959344
vt 0.794519 0.050701
vt 0.713890 0.956941
vt 0.707794 0.979330
vt 0.646576 0.039910
vt 0.634766 0.023437
vt 0.639306 0.972867
vt 0.605469 0.984375
vt 0.607993 0.944747
vt 0.611620 0.986062
vt 0.609615 0.016024
vt 0.601722 0.030612
vt 0.570991 0.971465
vt 0.576611 0.991497
vt 0.547693 0.003437
vt 0.542969 0.015625
vt 0.508664 0.944033
vt 0.465759 0.949465
vt 0.442428 0.948331
vt 0.426586 0.030815
vt 0.368712 0.944057
vt 0.391699 0.986604
vt 0.359116 0.050417
vt 0.326435 0.992040
vt 0.331131 0.938695
vt 0.332031 0.984375
vt 0.232956 0.061629
vt 0.269639 0.948116
vt 0.265525 0.986288
vt 0.222656 0.046875
vt 0.158044 0.122765
vt 0.199793 0.973231
vt 0.208984 0.976563
vt 0.207031 0.015625
vt 0.190000 0.051104
vt 0.201642 0.008836
vt 0.136384 0.025194
vt 0.149769 0.036575
vt 0.100509 0.964536
vt 0.017848 0.817783
vt 0.058296 0.778512
vt 0.113792 0.035917
vt 0.067577 0.042192
vt 0.040104 0.972917
vt 0.047218 0.985692
vt 0.007076 0.034726
vt 0.015840 0.015585
vt 0.995181 0.122067
vt 0.998554 0.430355
vt 0.991642 0.826555
vt 0.980648 0.886762
vt 0.992923 0.291932
vt 0.953057 0.986672
vt 0.942433 0.935662
vt 0.958088 0.980147
vt 0.987581 0.930128
vt 0.904271 0.937760
vt 0.905528 0.052227
vt 0.889931 0.013443
vt 0.827576 0.990077
s 1
f 201/1/201 195/2/195 196/3/196
f 12/4/12 196/3/196 195/2/195
f 182/5/182 20/6/20 13/7/13
f 182/5/182 13/7/13 21/8/21
f 21/8/21 13/7/13 14/9/14
f 15/10/15 21/8/21 22/11/22
f 1/12/1 21/8/21 15/10/15
f 197/13/197 22/11/22 17/14/17
f 183/15/183 198/16/198 180/17/180
f 317/18/317 197/13/197 199/19/199
f 197/13/197 202/20/202 199/19/199
f 199/19/199 203/21/203 200/22/200
f 319/23/319 198/16/198 23/24/23
f 20/6/20 319/23/319 16/25/16
f 20/6/20 16/25/16 207/26/207
f 201/1/201 28/27/28 195/2/195
f 19/28/19 27/29/27 201/1/201
f 13/7/13 20/6/20 30/30/30
f 176/31/176 195/2/195 204/32/204
f 14/9/14 30/30/30 31/33/31
f 22/11/22 21/8/21 205/34/205
f 14/9/14 31/33/31 205/34/205
f 26/35/26 198/16/198 183/15/183
f 17/14/17 24/36/24 202/20/202
f 32/37/32 23/24/23 198/16/198
f 202/20/202 18/38/18 203/21/203
f 26/39/26 316/40/316 4/41/4
f 205/34/205 209/42/209 24/36/24
f 205/34/205 24/36/24 17/14/17
f 28/27/28 27/29/27 36/43/36
f 28/27/28 204/32/204 195/2/195
f 184/44/184 204/32/204 208/45/208
f 31/33/31 209/42/209 205/34/205
f 16/25/16 2/46/2 207/26/207
f 23/24/23 206/47/206 16/25/16
f 16/25/16 206/47/206 2/46/2
f 207/26/207 212/48/212 30/30/30
f 30/30/30 37/49/37 31/33/31
f 31/33/31 35/50/35 209/42/209
f 24/36/24 209/42/209 29/51/29
f 25/52/25 210/53/210 42/54/42
f 29/51/29 211/55/211 34/56/34
f 210/53/210 34/56/34 42/54/42
f 206/47/206 41/57/41 48/58/48
f 206/47/206 48/58/48 33/59/33
f 27/29/27 42/54/42 3/60/3
f 2/46/2 33/59/33 38/61/38
f 27/29/27 3/60/3 36/43/36
f 36/43/36 39/62/39 204/32/204
f 204/32/204 39/62/39 208/45/208
f 37/49/37 40/63/40 211/55/211
f 36/43/36 3/60/3 45/64/45
f 38/61/38 40/63/40 2/46/2
f 214/65/214 219/66/219 40/63/40
f 215/67/215 39/62/39 46/68/46
f 215/67/215 46/68/46 216/69/216
f 40/63/40 220/70/220 218/71/218
f 41/57/41 213/72/213 223/73/223
f 34/56/34 218/71/218 217/74/217
f 34/56/34 217/74/217 42/54/42
f 41/57/41 5/75/5 48/58/48
f 33/59/33 48/58/48 44/76/44
f 224/77/224 217/74/217 218/71/218
f 42/54/42 217/74/217 52/78/52
f 44/76/44 48/58/48 49/79/49
f 45/64/45 52/78/52 225/80/225
f 3/60/3 52/78/52 45/64/45
f 38/61/38 44/76/44 214/65/214
f 44/76/44 49/79/49 43/81/43
f 47/82/47 53/83/53 46/68/46
f 219/66/219 222/84/222 220/70/220
f 220/70/220 224/77/224 218/71/218
f 46/68/46 60/85/60 228/86/228
f 220/70/220 55/87/55 224/77/224
f 224/77/224 226/88/226 217/74/217
f 48/58/48 5/75/5 62/89/62
f 217/74/217 226/88/226 52/78/52
f 145/90/145 153/91/153 151/92/151 149/93/149
f 45/64/45 225/80/225 47/82/47
f 225/80/225 227/94/227 47/82/47
f 214/65/214 43/81/43 221/95/221
f 43/81/43 49/79/49 50/96/50
f 226/88/226 58/97/58 52/78/52
f 49/79/49 62/89/62 63/98/63
f 52/78/52 227/94/227 225/80/225
f 227/94/227 233/99/233 47/82/47
f 43/81/43 50/96/50 54/100/54
f 47/82/47 233/99/233 53/83/53
f 50/96/50 59/101/59 54/100/54
f 53/83/53 68/102/68 60/85/60
f 53/83/53 60/85/60 46/68/46
f 228/103/228 234/104/234 191/105/191
f 61/106/61 229/107/229 55/87/55
f 55/87/55 229/107/229 224/77/224
f 59/101/59 57/108/57 64/109/64
f 60/85/60 234/110/234 228/111/228
f 229/107/229 61/106/61 70/112/70
f 63/98/63 56/113/56 50/96/50
f 58/97/58 231/114/231 236/115/236
f 63/98/63 232/116/232 56/113/56
f 67/117/67 76/118/76 233/99/233
f 56/113/56 232/116/232 57/108/57
f 232/116/232 64/109/64 57/108/57
f 69/119/69 64/109/64 65/120/65
f 230/121/230 70/112/70 231/114/231
f 70/112/70 66/122/66 231/114/231
f 51/123/51 238/124/238 235/125/235
f 68/102/68 242/126/242 187/127/187
f 234/128/234 187/127/187 191/129/191
f 68/130/68 187/127/187 234/131/234
f 66/122/66 80/132/80 81/133/81
f 231/114/231 66/122/66 72/134/72
f 6/135/6 72/134/72 245/136/245
f 236/115/236 6/135/6 239/137/239
f 235/125/235 240/138/240 237/139/237
f 238/124/238 240/138/240 235/125/235
f 239/137/239 241/140/241 73/141/73
f 237/139/237 77/142/77 232/116/232
f 64/109/64 71/143/71 79/144/79
f 83/145/83 84/146/84 239/137/239
f 241/140/241 75/147/75 76/118/76
f 76/118/76 75/147/75 78/148/78
f 71/143/71 77/142/77 79/144/79
f 79/144/79 85/149/85 247/150/247
f 80/132/80 79/144/79 247/150/247
f 65/120/65 79/144/79 80/132/80
f 81/133/81 91/151/91 74/152/74
f 81/133/81 244/153/244 245/136/245
f 72/134/72 81/133/81 245/136/245
f 239/137/239 6/135/6 83/145/83
f 7/154/7 187/155/187 242/156/242
f 243/157/243 252/158/252 82/159/82
f 244/153/244 250/160/250 245/136/245
f 82/159/82 252/158/252 238/124/238
f 250/160/250 89/161/89 83/145/83
f 84/146/84 83/145/83 89/161/89
f 84/146/84 89/161/89 88/162/88
f 240/138/240 246/163/246 85/149/85
f 240/138/240 85/149/85 77/142/77
f 241/140/241 84/146/84 88/162/88
f 78/148/78 75/147/75 90/164/90
f 85/149/85 246/163/246 248/165/248
f 91/151/91 87/166/87 255/167/255
f 186/168/186 86/169/86 243/170/243
f 187/171/187 257/172/257 191/173/191
f 74/152/74 249/174/249 244/153/244
f 86/169/86 92/175/92 252/158/252
f 244/153/244 249/174/249 250/160/250
f 249/174/249 96/176/96 250/160/250
f 252/158/252 99/177/99 246/163/246
f 257/178/257 187/179/187 7/180/7
f 255/167/255 95/181/95 249/174/249
f 249/174/249 259/182/259 96/176/96
f 95/181/95 259/182/259 249/174/249
f 96/176/96 94/183/94 89/161/89
f 88/162/88 94/183/94 253/184/253
f 246/163/246 99/177/99 87/166/87
f 75/147/75 253/184/253 90/164/90
f 251/185/251 93/186/93 258/187/258
f 254/188/254 110/189/110 7/190/7
f 251/185/251 258/187/258 95/181/95
f 253/184/253 94/183/94 97/191/97
f 93/186/93 111/192/111 256/193/256
f 90/164/90 97/191/97 104/194/104
f 256/193/256 101/195/101 266/196/266
f 258/187/258 256/193/256 266/196/266
f 90/164/90 110/189/110 254/188/254
f 268/197/268 186/198/186 4/199/4
f 266/196/266 263/200/263 259/182/259
f 260/201/260 261/202/261 262/203/262
f 260/201/260 262/203/262 94/183/94
f 98/204/98 92/175/92 270/205/270
f 98/204/98 270/205/270 111/192/111
f 94/183/94 262/203/262 103/206/103
f 98/204/98 111/192/111 93/186/93
f 92/175/92 100/207/100 271/208/271
f 259/182/259 264/209/264 261/202/261
f 92/175/92 271/208/271 270/205/270
f 264/209/264 272/210/272 261/202/261
f 261/202/261 272/210/272 262/203/262
f 97/191/97 103/206/103 102/211/102
f 97/191/97 102/211/102 108/212/108
f 266/196/266 101/195/101 267/213/267
f 266/196/266 267/213/267 263/200/263
f 267/213/267 269/214/269 263/200/263
f 276/215/276 114/216/114 105/217/105
f 101/195/101 276/215/276 105/217/105
f 101/195/101 105/217/105 106/218/106
f 267/213/267 119/219/119 269/214/269
f 265/220/265 285/221/285 191/222/191
f 268/223/268 271/208/271 100/207/100
f 263/200/263 107/224/107 264/209/264
f 264/209/264 107/224/107 272/210/272
f 111/192/111 274/225/274 276/215/276
f 272/210/272 275/226/275 112/227/112
f 269/214/269 117/228/117 107/224/107
f 117/228/117 8/229/8 107/224/107
f 107/224/107 8/229/8 272/210/272
f 111/192/111 113/230/113 274/225/274
f 112/227/112 275/226/275 120/231/120
f 276/215/276 274/225/274 125/232/125
f 112/227/112 120/231/120 102/211/102
f 106/218/106 105/217/105 118/233/118
f 105/217/105 114/216/114 115/234/115
f 268/223/268 277/235/277 271/208/271
f 277/235/277 9/236/9 271/208/271
f 118/233/118 279/237/279 121/238/121
f 268/239/268 188/240/188 277/235/277
f 188/240/188 268/241/268 4/242/4
f 121/238/121 273/243/273 119/219/119
f 273/243/273 122/244/122 117/228/117
f 113/230/113 9/236/9 274/225/274
f 8/229/8 122/244/122 129/245/129
f 8/229/8 282/246/282 275/226/275
f 275/226/275 282/246/282 280/247/280
f 114/216/114 125/232/125 281/248/281
f 281/248/281 278/249/278 114/216/114
f 114/216/114 278/249/278 115/234/115
f 8/229/8 129/245/129 282/246/282
f 282/246/282 130/250/130 280/247/280
f 280/247/280 130/250/130 292/251/292
f 281/248/281 288/252/288 278/249/278
f 283/253/283 288/252/288 281/248/281
f 292/251/292 284/254/284 120/231/120
f 278/249/278 126/255/126 279/237/279
f 116/256/116 284/254/284 189/257/189
f 126/255/126 124/258/124 279/237/279
f 279/237/279 124/258/124 287/259/287
f 285/260/285 189/257/189 191/261/191
f 286/262/286 135/263/135 9/236/9
f 129/245/129 289/264/289 133/265/133
f 122/244/122 287/259/287 289/264/289
f 288/252/288 127/266/127 126/255/126
f 189/257/189 128/267/128 295/268/295
f 127/266/127 138/269/138 290/270/290
f 290/270/290 296/271/296 133/265/133
f 289/264/289 290/270/290 133/265/133
f 291/272/291 294/273/294 130/250/130
f 283/253/283 134/274/134 288/252/288
f 292/251/292 294/273/294 132/275/132
f 288/252/288 134/274/134 127/266/127
f 133/265/133 140/276/140 293/277/293
f 134/274/134 131/278/131 142/279/142
f 128/267/128 132/275/132 141/280/141
f 127/266/127 142/279/142 138/269/138
f 128/267/128 161/281/161 295/268/295
f 138/269/138 151/282/151 296/271/296
f 135/263/135 286/262/286 190/283/190
f 296/271/296 140/276/140 133/265/133
f 138/284/138 150/285/150 151/92/151
f 151/92/151 153/91/153 140/286/140
f 140/286/140 139/287/139 293/288/293
f 132/289/132 139/287/139 146/290/146
f 141/291/141 132/289/132 147/292/147
f 142/293/142 131/294/131 137/295/137
f 142/293/142 137/295/137 148/296/148
f 142/293/142 148/296/148 138/284/138
f 132/289/132 146/290/146 147/292/147
f 131/294/131 143/297/143 137/295/137
f 137/295/137 143/297/143 144/298/144
f 148/296/148 137/295/137 156/299/156
f 148/296/148 156/299/156 150/285/150
f 156/299/156 160/300/160 149/93/149
f 153/91/153 298/301/298 139/287/139
f 139/287/139 298/301/298 146/290/146
f 149/93/149 154/302/154 145/90/145
f 146/290/146 298/301/298 163/303/163
f 146/290/146 163/303/163 302/304/302
f 143/297/143 299/305/299 155/306/155
f 299/305/299 301/307/301 155/306/155
f 155/306/155 303/308/303 144/298/144
f 147/292/147 300/309/300 297/310/297
f 156/299/156 144/298/144 160/300/160
f 144/298/144 303/308/303 160/300/160
f 297/310/297 171/311/171 161/312/161
f 301/307/301 306/313/306 155/306/155
f 155/306/155 306/313/306 167/314/167
f 302/304/302 307/315/307 147/292/147
f 303/308/303 159/316/159 160/300/160
f 171/311/171 192/317/192 161/312/161
f 162/318/162 159/316/159 164/319/164
f 160/300/160 159/316/159 162/318/162
f 162/318/162 164/319/164 11/320/11
f 172/321/172 312/322/312 152/323/152
f 163/303/163 157/324/157 166/325/166
f 10/326/10 180/17/180 172/321/172
f 166/325/166 157/324/157 177/327/177
f 166/325/166 177/327/177 165/328/165
f 158/329/158 166/325/166 165/328/165
f 312/322/312 181/330/181 304/331/304
f 304/331/304 181/330/181 301/307/301
f 158/329/158 305/332/305 308/333/308
f 158/329/158 165/328/165 305/332/305
f 301/307/301 313/334/313 306/313/306
f 307/315/307 309/335/309 300/309/300
f 167/314/167 170/336/170 159/316/159
f 164/319/164 170/336/170 168/337/168
f 316/338/316 188/339/188 4/340/4
f 192/341/192 184/342/184 191/343/191
f 308/333/308 178/344/178 179/345/179
f 306/313/306 314/346/314 170/336/170
f 313/334/313 314/346/314 306/313/306
f 309/335/309 179/345/179 12/4/12
f 171/311/171 309/335/309 176/31/176
f 188/347/188 315/348/315 10/349/10
f 11/320/11 168/337/168 169/350/169
f 169/350/169 177/327/177 157/324/157
f 172/321/172 194/351/194 312/322/312
f 177/327/177 310/352/310 165/328/165
f 310/352/310 178/344/178 305/332/305
f 165/328/165 310/352/310 305/332/305
f 308/333/308 305/332/305 178/344/178
f 181/330/181 313/334/313 301/307/301
f 311/353/311 175/354/175 310/352/310
f 175/354/175 178/344/178 310/352/310
f 181/330/181 319/23/319 313/334/313
f 313/334/313 318/355/318 173/356/173
f 309/335/309 12/4/12 176/31/176
f 173/356/173 182/5/182 174/357/174
f 168/337/168 173/356/173 174/357/174
f 169/350/169 193/358/193 317/18/317
f 315/359/315 316/360/316 180/17/180
f 15/10/15 197/13/197 317/18/317
f 180/17/180 316/360/316 183/15/183
f 317/18/317 199/19/199 311/353/311
f 180/17/180 198/16/198 194/351/194
f 311/353/311 200/22/200 175/354/175
f 194/351/194 319/23/319 181/330/181
f 200/22/200 196/3/196 178/344/178
f 200/22/200 201/1/201 196/3/196
f 179/345/179 196/3/196 12/4/12
f 176/31/176 12/4/12 195/2/195
f 192/361/192 176/31/176 184/44/184
f 197/13/197 15/10/15 22/11/22
f 199/19/199 202/20/202 203/21/203
f 194/351/194 198/16/198 319/23/319
f 200/22/200 203/21/203 201/1/201
f 203/21/203 19/28/19 201/1/201
f 318/355/318 319/23/319 20/6/20
f 201/1/201 27/29/27 28/27/28
f 30/30/30 20/6/20 207/26/207
f 14/9/14 13/7/13 30/30/30
f 184/44/184 176/31/176 204/32/204
f 205/34/205 21/8/21 14/9/14
f 183/362/183 316/363/316 26/35/26
f 17/14/17 22/11/22 205/34/205
f 198/16/198 26/35/26 32/37/32
f 202/20/202 24/36/24 18/38/18
f 197/13/197 17/14/17 202/20/202
f 203/21/203 18/38/18 19/28/19
f 16/25/16 319/23/319 23/24/23
f 19/28/19 18/38/18 25/52/25
f 25/52/25 18/38/18 210/53/210
f 28/27/28 36/43/36 204/32/204
f 191/364/191 184/44/184 208/45/208
f 207/26/207 2/46/2 212/48/212
f 30/30/30 212/48/212 37/49/37
f 31/33/31 37/49/37 35/50/35
f 191/364/191 208/45/208 215/365/215
f 29/51/29 209/42/209 211/55/211
f 209/42/209 35/50/35 211/55/211
f 210/53/210 24/36/24 29/51/29
f 18/38/18 24/36/24 210/53/210
f 23/24/23 32/37/32 41/57/41
f 206/47/206 23/24/23 41/57/41
f 27/29/27 19/28/19 25/52/25
f 27/29/27 25/52/25 42/54/42
f 41/57/41 32/37/32 213/72/213
f 32/37/32 26/366/26 213/72/213
f 210/53/210 29/51/29 34/56/34
f 2/46/2 206/47/206 33/59/33
f 36/43/36 45/64/45 39/62/39
f 212/48/212 2/46/2 40/63/40
f 212/48/212 40/63/40 37/49/37
f 35/50/35 37/49/37 211/55/211
f 4/367/4 213/368/213 26/369/26
f 191/370/191 215/67/215 216/371/216
f 45/64/45 46/68/46 39/62/39
f 40/63/40 38/61/38 214/65/214
f 215/67/215 208/45/208 39/62/39
f 40/63/40 219/66/219 220/70/220
f 185/372/185 213/72/213 4/373/4
f 34/56/34 211/55/211 218/71/218
f 211/55/211 40/63/40 218/71/218
f 5/75/5 41/57/41 223/73/223
f 3/60/3 42/54/42 52/78/52
f 38/61/38 33/59/33 44/76/44
f 214/65/214 44/76/44 43/81/43
f 45/64/45 47/82/47 46/68/46
f 219/66/219 214/65/214 221/95/221
f 46/68/46 228/86/228 216/69/216
f 191/374/191 216/69/216 228/375/228
f 223/73/223 213/72/213 185/376/185
f 219/66/219 221/95/221 222/84/222
f 221/95/221 54/100/54 222/84/222
f 220/70/220 222/84/222 55/87/55
f 5/75/5 223/73/223 51/123/51
f 62/89/62 5/75/5 51/123/51
f 49/79/49 48/58/48 62/89/62
f 62/89/62 51/123/51 235/125/235
f 50/96/50 49/79/49 63/98/63
f 221/95/221 43/81/43 54/100/54
f 54/100/54 59/101/59 222/84/222
f 222/84/222 59/101/59 61/106/61
f 222/84/222 61/106/61 55/87/55
f 223/73/223 185/376/185 82/159/82
f 51/123/51 223/73/223 82/159/82
f 224/77/224 229/107/229 226/88/226
f 59/101/59 50/96/50 57/108/57
f 69/119/69 59/101/59 64/109/64
f 61/106/61 59/101/59 69/119/69
f 82/159/82 185/377/185 4/378/4
f 70/112/70 61/106/61 69/119/69
f 230/121/230 229/107/229 70/112/70
f 226/88/226 229/107/229 230/121/230
f 226/88/226 230/121/230 58/97/58
f 62/89/62 235/125/235 237/139/237
f 62/89/62 237/139/237 63/98/63
f 227/94/227 58/97/58 67/117/67
f 52/78/52 58/97/58 227/94/227
f 227/94/227 67/117/67 233/99/233
f 50/96/50 56/113/56 57/108/57
f 53/83/53 233/99/233 68/102/68
f 58/97/58 230/121/230 231/114/231
f 67/117/67 236/115/236 73/141/73
f 67/117/67 58/97/58 236/115/236
f 63/98/63 237/139/237 232/116/232
f 67/117/67 73/141/73 76/118/76
f 233/99/233 76/118/76 78/148/78
f 233/99/233 78/148/78 68/102/68
f 60/85/60 68/102/68 234/379/234
f 70/112/70 69/119/69 66/122/66
f 66/122/66 69/119/69 65/120/65
f 65/120/65 64/109/64 79/144/79
f 66/122/66 65/120/65 80/132/80
f 243/380/243 82/159/82 4/381/4
f 72/134/72 66/122/66 81/133/81
f 51/123/51 82/159/82 238/124/238
f 236/115/236 231/114/231 6/135/6
f 6/135/6 231/114/231 72/134/72
f 236/115/236 239/137/239 73/141/73
f 237/139/237 240/138/240 77/142/77
f 73/141/73 241/140/241 76/118/76
f 232/116/232 77/142/77 71/143/71
f 64/109/64 232/116/232 71/143/71
f 239/137/239 84/146/84 241/140/241
f 79/144/79 77/142/77 85/149/85
f 242/382/242 68/102/68 254/188/254
f 78/148/78 90/164/90 68/102/68
f 80/132/80 247/150/247 91/151/91
f 81/133/81 80/132/80 91/151/91
f 81/133/81 74/152/74 244/153/244
f 6/135/6 245/136/245 83/145/83
f 91/151/91 247/150/247 248/165/248
f 186/383/186 243/384/243 4/385/4
f 243/384/243 86/169/86 252/158/252
f 245/136/245 250/160/250 83/145/83
f 238/124/238 252/158/252 246/163/246
f 238/124/238 246/163/246 240/138/240
f 75/147/75 241/140/241 88/162/88
f 247/150/247 85/149/85 248/165/248
f 254/188/254 68/102/68 90/164/90
f 75/147/75 88/162/88 253/184/253
f 248/165/248 246/163/246 87/166/87
f 242/156/242 254/188/254 7/190/7
f 91/151/91 248/165/248 87/166/87
f 74/152/74 255/167/255 249/174/249
f 74/152/74 91/151/91 255/167/255
f 250/160/250 96/176/96 89/161/89
f 255/167/255 251/185/251 95/181/95
f 96/176/96 259/182/259 260/201/260
f 96/176/96 260/201/260 94/183/94
f 252/158/252 92/175/92 99/177/99
f 88/162/88 89/161/89 94/183/94
f 87/166/87 99/177/99 93/186/93
f 90/164/90 253/184/253 97/191/97
f 251/185/251 87/166/87 93/186/93
f 255/167/255 87/166/87 251/185/251
f 7/190/7 110/189/110 257/386/257
f 92/175/92 86/387/86 186/388/186
f 97/191/97 94/183/94 103/206/103
f 258/187/258 93/186/93 256/193/256
f 90/164/90 104/194/104 110/189/110
f 110/189/110 265/389/265 257/386/257
f 258/187/258 266/196/266 259/182/259
f 95/181/95 258/187/258 259/182/259
f 92/175/92 186/198/186 100/207/100
f 259/182/259 261/202/261 260/201/260
f 99/177/99 92/175/92 98/204/98
f 93/186/93 99/177/99 98/204/98
f 259/182/259 263/200/263 264/209/264
f 262/203/262 272/210/272 103/206/103
f 256/193/256 111/192/111 276/215/276
f 102/211/102 103/206/103 112/227/112
f 101/195/101 256/193/256 276/215/276
f 104/194/104 97/191/97 108/212/108
f 267/213/267 101/195/101 106/218/106
f 104/194/104 109/390/109 110/189/110
f 268/391/268 100/207/100 186/392/186
f 257/393/257 265/394/265 191/395/191
f 109/390/109 104/194/104 108/212/108
f 110/189/110 109/390/109 116/256/116
f 265/220/265 110/189/110 116/256/116
f 267/213/267 106/218/106 119/219/119
f 263/200/263 269/214/269 107/224/107
f 111/192/111 270/205/270 113/230/113
f 103/206/103 272/210/272 112/227/112
f 269/214/269 273/243/273 117/228/117
f 113/230/113 271/208/271 9/236/9
f 270/205/270 271/208/271 113/230/113
f 272/210/272 8/229/8 275/226/275
f 120/231/120 275/226/275 280/247/280
f 114/216/114 276/215/276 125/232/125
f 102/211/102 120/231/120 108/212/108
f 109/390/109 108/212/108 284/254/284
f 118/233/118 105/217/105 115/234/115
f 106/218/106 118/233/118 119/219/119
f 116/256/116 285/396/285 265/397/265
f 269/214/269 119/219/119 273/243/273
f 118/233/118 121/238/121 119/219/119
f 108/212/108 120/231/120 284/254/284
f 115/234/115 278/249/278 279/237/279
f 116/256/116 109/390/109 284/254/284
f 118/233/118 115/234/115 279/237/279
f 277/235/277 188/240/188 286/398/286
f 273/243/273 121/238/121 287/259/287
f 287/259/287 121/238/121 279/237/279
f 122/244/122 273/243/273 287/259/287
f 117/228/117 122/244/122 8/229/8
f 274/225/274 283/253/283 125/232/125
f 280/247/280 292/251/292 120/231/120
f 274/225/274 9/236/9 136/399/136
f 282/246/282 129/245/129 291/272/291
f 283/253/283 274/225/274 123/400/123
f 125/232/125 283/253/283 281/248/281
f 278/249/278 288/252/288 126/255/126
f 285/401/285 116/256/116 189/257/189
f 189/257/189 284/254/284 128/267/128
f 295/268/295 191/402/191 189/257/189
f 287/259/287 124/258/124 289/264/289
f 277/235/277 286/262/286 9/236/9
f 129/245/129 122/244/122 289/264/289
f 124/258/124 127/266/127 290/270/290
f 126/255/126 127/266/127 124/258/124
f 190/403/190 286/262/286 188/404/188
f 289/264/289 124/258/124 290/270/290
f 129/245/129 133/265/133 291/272/291
f 136/399/136 9/236/9 135/263/135
f 123/400/123 274/225/274 136/399/136
f 291/272/291 133/265/133 293/277/293
f 282/246/282 291/272/291 130/250/130
f 283/253/283 123/400/123 134/274/134
f 128/267/128 292/251/292 132/275/132
f 292/251/292 130/250/130 294/273/294
f 284/254/284 292/251/292 128/267/128
f 134/274/134 136/399/136 131/278/131
f 134/274/134 123/400/123 136/399/136
f 291/272/291 293/277/293 294/273/294
f 127/266/127 134/274/134 142/279/142
f 161/405/161 191/406/191 295/268/295
f 290/270/290 138/269/138 296/271/296
f 128/407/128 297/310/297 161/312/161
f 138/284/138 148/296/148 150/285/150
f 296/408/296 151/92/151 140/286/140
f 136/409/136 135/410/135 152/323/152
f 140/286/140 153/91/153 139/287/139
f 293/288/293 139/287/139 294/411/294
f 132/289/132 294/411/294 139/287/139
f 128/407/128 141/291/141 297/310/297
f 143/297/143 131/294/131 299/305/299
f 147/292/147 146/290/146 302/304/302
f 141/291/141 147/292/147 297/310/297
f 156/299/156 137/295/137 144/298/144
f 150/285/150 156/299/156 149/93/149
f 188/412/188 10/413/10 190/414/190
f 150/285/150 149/93/149 151/92/151
f 135/410/135 190/415/190 172/321/172
f 190/415/190 10/416/10 172/321/172
f 152/323/152 135/410/135 172/321/172
f 153/91/153 145/90/145 298/301/298
f 299/305/299 136/409/136 152/323/152
f 131/294/131 136/409/136 299/305/299
f 149/93/149 160/300/160 154/302/154
f 154/302/154 160/300/160 162/318/162
f 298/301/298 145/90/145 154/302/154
f 299/305/299 152/323/152 304/331/304
f 144/298/144 143/297/143 155/306/155
f 297/310/297 300/309/300 171/311/171
f 302/304/302 158/329/158 307/315/307
f 155/306/155 167/314/167 303/308/303
f 147/292/147 307/315/307 300/309/300
f 303/308/303 167/314/167 159/316/159
f 161/417/161 192/317/192 191/418/191
f 154/302/154 162/318/162 11/320/11
f 298/301/298 154/302/154 157/324/157
f 157/324/157 154/302/154 11/320/11
f 152/323/152 312/322/312 304/331/304
f 158/329/158 163/303/163 166/325/166
f 163/303/163 298/301/298 157/324/157
f 299/305/299 304/331/304 301/307/301
f 302/304/302 163/303/163 158/329/158
f 10/326/10 315/348/315 180/17/180
f 158/329/158 308/333/308 307/315/307
f 167/314/167 306/313/306 170/336/170
f 300/309/300 309/335/309 171/311/171
f 164/319/164 159/316/159 170/336/170
f 307/315/307 308/333/308 179/345/179
f 309/335/309 307/315/307 179/345/179
f 168/337/168 170/336/170 314/346/314
f 11/320/11 164/319/164 168/337/168
f 316/419/316 315/348/315 188/347/188
f 157/324/157 11/320/11 169/350/169
f 172/321/172 180/17/180 194/351/194
f 311/353/311 169/350/169 317/18/317
f 177/327/177 169/350/169 311/353/311
f 177/327/177 311/353/311 310/352/310
f 312/322/312 194/351/194 181/330/181
f 313/334/313 319/23/319 318/355/318
f 179/345/179 178/344/178 196/3/196
f 314/346/314 313/334/313 173/356/173
f 168/337/168 314/346/314 173/356/173
f 192/361/192 171/311/171 176/31/176
f 169/350/169 168/337/168 174/357/174
f 169/350/169 174/357/174 193/358/193
f 173/356/173 318/355/318 182/5/182
f 182/5/182 318/355/318 20/6/20
f 1/12/1 182/5/182 21/8/21
f 193/358/193 174/357/174 1/12/1
f 174/357/174 182/5/182 1/12/1
f 317/18/317 193/358/193 15/10/15
f 193/358/193 1/12/1 15/10/15
f 311/353/311 199/19/199 200/22/200
f 175/354/175 200/22/200 178/344/178
