mtllib knife2.mtl
o knife2
usemtl knife2
v -0.0827098861336708 -0.5489428639411926 0
v -0.0827098861336708 -0.5489428639411926 0
v -0.05762278288602829 -1.134299635887146 0
v -0.05762278288602829 -1.134299635887146 0
v -0.05762278288602829 -1.134299635887146 0
v -0.05762278288602829 -1.134299635887146 0
v 0.030323445796966553 -1.3297287225723267 0
v 0.030323445796966553 -1.3297287225723267 0
v -0.08982163667678833 -0.5491654872894287 -0.03458843380212784
v 0.18679167330265045 1.4907737970352173 -0.02297903224825859
v -0.25536048412323 -0.34305211901664734 -0.019574346020817757
v -0.25536048412323 -0.34305211901664734 -0.019574346020817757
v -0.2590538561344147 -0.5490353107452393 -0.03331777825951576
v -0.25766879320144653 -1.4784072637557983 -0.03731432557106018
v 0.003920922055840492 -1.4153422117233276 -0.03723093122243881
v 0.020734747871756554 -1.3321324586868286 -0.03810657933354378
v -0.06527932733297348 -1.1344566345214844 -0.03782553970813751
v -0.06527932733297348 -1.1344566345214844 -0.03782553970813751
v -0.2538689374923706 1.4900740385055542 -0.02060812897980213
v 0.1785718947649002 -0.3522014319896698 -0.02295112982392311
v -0.2585364878177643 -1.1319749355316162 -0.03723004832863808
v -0.2585364878177643 -1.1319749355316162 -0.03723004832863808
v -0.25719767808914185 -1.4226123094558716 -0.037212274968624115
v -0.25686582922935486 -1.3574721813201904 -0.03724290430545807
v -0.027273979038000107 -1.476703405380249 -0.037386249750852585
v 0.0031888268422335386 -1.3112244606018066 0
v 0.0031888268422335386 -1.3112244606018066 0
v -0.04790915176272392 -1.2720253467559814 0
v -0.04790915176272392 -1.2720253467559814 0
v -0.09347753971815109 -0.3842756152153015 -0.02409113571047783
v -0.2593015730381012 -0.38405731320381165 -0.01810150220990181
v -0.07866670936346054 -0.3763314485549927 0
v -0.07866670936346054 -0.3763314485549927 0
v -0.07866670936346054 -0.3763314485549927 0
v -0.07866670936346054 -0.3763314485549927 0
v -0.040326524525880814 -1.4890375137329102 -0.037196800112724304
v -0.07802252471446991 -0.8413480520248413 -0.03680889680981636
v -0.25387290120124817 -0.2904631197452545 -0.02059979923069477
v -0.25387290120124817 -0.2904631197452545 -0.02059979923069477
v 0.18678969144821167 -0.29179006814956665 -0.022978870198130608
v -0.09463289380073547 -0.41383668780326843 -0.02966095693409443
v -0.05448437109589577 -1.2729921340942383 -0.039516884833574295
v -0.2592620849609375 -0.41367316246032715 -0.02557850442826748
v -0.25879016518592834 -0.8409191370010376 -0.036711275577545166
v -0.2583576738834381 -1.266251564025879 -0.03728679195046425
v -0.25753724575042725 -1.453986406326294 -0.037204645574092865
v -0.2568720579147339 -1.3899905681610107 -0.03722032532095909
v -0.2573769986629486 -1.326335072517395 -0.03729645162820816
v -0.25412020087242126 -1.4894989728927612 -0.03711075708270073
v -0.003969079814851284 -1.313644528388977 -0.040109552443027496
v 0.02035169117152691 -1.369271993637085 -0.03731658309698105
v -0.013439444825053215 -1.4522970914840698 -0.03725891560316086
v -0.08275442570447922 -0.3752562403678894 -0.02435445599257946
v -0.08275442570447922 -0.3752562403678894 -0.02435445599257946
v -0.2590053081512451 -0.373988538980484 -0.015078281983733177
v -0.2590053081512451 -0.373988538980484 -0.015078281983733177
v -0.2590053081512451 -0.373988538980484 -0.015078281983733177
v 0.18679110705852509 -0.18620775640010834 -0.022978749126195908
v -0.25387024879455566 -0.1848105639219284 -0.020602522417902946
v -0.26531508564949036 -0.34306982159614563 0
v -0.26531508564949036 -0.34306982159614563 0
v -0.2657739222049713 -0.5489426851272583 0
v -0.2657739222049713 -0.5489426851272583 0
v -0.26588836312294006 -1.4789366722106934 0
v -0.26588836312294006 -1.4789366722106934 0
v 0.012459936551749706 -1.4164363145828247 0
v 0.012459936551749706 -1.4164363145828247 0
v 0.2574373483657837 -0.3543606400489807 0
v 0.2574373483657837 -0.3543606400489807 0
v -0.26591160893440247 -1.1319153308868408 0
v -0.26591160893440247 -1.1319153308868408 0
v -0.26591160893440247 -1.1319153308868408 0
v -0.26591160893440247 -1.1319153308868408 0
v -0.26586875319480896 -1.4227237701416016 0
v -0.26586875319480896 -1.4227237701416016 0
v -0.2658580541610718 -1.358127474784851 0
v -0.2658580541610718 -1.358127474784851 0
v -0.01972447894513607 -1.478727102279663 0
v -0.01972447894513607 -1.478727102279663 0
v -0.26499930024147034 -0.383157342672348 0
v -0.26499930024147034 -0.383157342672348 0
v -0.08741831034421921 -0.38425472378730774 0
v -0.08741831034421921 -0.38425472378730774 0
v -0.03438074141740799 -1.4927364587783813 0
v -0.03438074141740799 -1.4927364587783813 0
v -0.07073155790567398 -0.8411920070648193 0
v -0.07073155790567398 -0.8411920070648193 0
v -0.26478326320648193 -0.2904540002346039 0
v -0.26478326320648193 -0.2904540002346039 0
v 0.26220259070396423 -0.2920443117618561 0
v 0.26220259070396423 -0.2920443117618561 0
v -0.26542940735816956 -0.41322800517082214 0
v -0.26542940735816956 -0.41322800517082214 0
v -0.2659001350402832 -0.8408941626548767 0
v -0.2659001350402832 -0.8408941626548767 0
v -0.2659057676792145 -1.2661466598510742 0
v -0.2659057676792145 -1.2661466598510742 0
v -0.26587963104248047 -1.4539722204208374 0
v -0.26587963104248047 -1.4539722204208374 0
v -0.2658582925796509 -1.3904234170913696 0
v -0.2658582925796509 -1.3904234170913696 0
v -0.2658746838569641 -1.326738953590393 0
v -0.2658746838569641 -1.326738953590393 0
v -0.2611405849456787 -1.4931341409683228 0
v -0.2611405849456787 -1.4931341409683228 0
v 0.029649987816810608 -1.369485855102539 0
v 0.029649987816810608 -1.369485855102539 0
v -0.0053841909393668175 -1.4537441730499268 0
v -0.0053841909393668175 -1.4537441730499268 0
v 0.2622027099132538 1.4915437698364258 0
v 0.2622027099132538 1.4915437698364258 0
v -0.26478326320648193 1.4931341409683228 0
v -0.26478326320648193 1.4931341409683228 0
v -0.2648080587387085 -0.37319788336753845 0
v -0.2648080587387085 -0.37319788336753845 0
v -0.2648080587387085 -0.37319788336753845 0
v -0.2648080587387085 -0.37319788336753845 0
v -0.26478326320648193 -0.1841777265071869 0
v -0.26478326320648193 -0.1841777265071869 0
v 0.26220259070396423 -0.18584412336349487 0
v 0.26220259070396423 -0.18584412336349487 0
v -0.09254932403564453 -0.34640824794769287 -0.022512827068567276
v -0.09254932403564453 -0.34640824794769287 -0.022512827068567276
v -0.08760003745555878 -0.2909657955169678 -0.022756721824407578
v -0.08760003745555878 -0.2909657955169678 -0.022756721824407578
v -0.09374821186065674 -0.37511587142944336 -0.024823496118187904
v -0.09374821186065674 -0.37511587142944336 -0.024823496118187904
v -0.09374821186065674 -0.37511587142944336 -0.024823496118187904
v -0.05945258215069771 -0.22721493244171143 -0.022754987701773643
v -0.253871351480484 -0.22899720072746277 -0.020601380616426468
v -0.26478326320648193 -0.22928977012634277 0
v -0.26478326320648193 -0.22928977012634277 0
v -0.08982163667678833 -0.5491654872894287 0.03458843380212784
v 0.18679167330265045 1.4907737970352173 0.02297903224825859
v -0.25536048412323 -0.34305211901664734 0.019574346020817757
v -0.25536048412323 -0.34305211901664734 0.019574346020817757
v -0.2590538561344147 -0.5490353107452393 0.03331777825951576
v -0.25766879320144653 -1.4784072637557983 0.03731432557106018
v 0.003920922055840492 -1.4153422117233276 0.03723093122243881
v 0.020734747871756554 -1.3321324586868286 0.03810657933354378
v -0.06527932733297348 -1.1344566345214844 0.03782553970813751
v -0.06527932733297348 -1.1344566345214844 0.03782553970813751
v -0.2538689374923706 1.4900740385055542 0.02060812897980213
v 0.1785718947649002 -0.3522014319896698 0.02295112982392311
v -0.2585364878177643 -1.1319749355316162 0.03723004832863808
v -0.2585364878177643 -1.1319749355316162 0.03723004832863808
v -0.25719767808914185 -1.4226123094558716 0.037212274968624115
v -0.25686582922935486 -1.3574721813201904 0.03724290430545807
v -0.027273979038000107 -1.476703405380249 0.037386249750852585
v -0.09347753971815109 -0.3842756152153015 0.02409113571047783
v -0.2593015730381012 -0.38405731320381165 0.01810150220990181
v -0.040326524525880814 -1.4890375137329102 0.037196800112724304
v -0.07802252471446991 -0.8413480520248413 0.03680889680981636
v -0.25387290120124817 -0.2904631197452545 0.02059979923069477
v -0.25387290120124817 -0.2904631197452545 0.02059979923069477
v 0.18678969144821167 -0.29179006814956665 0.022978870198130608
v -0.09463289380073547 -0.41383668780326843 0.02966095693409443
v -0.05448437109589577 -1.2729921340942383 0.039516884833574295
v -0.2592620849609375 -0.41367316246032715 0.02557850442826748
v -0.25879016518592834 -0.8409191370010376 0.036711275577545166
v -0.2583576738834381 -1.266251564025879 0.03728679195046425
v -0.25753724575042725 -1.453986406326294 0.037204645574092865
v -0.2568720579147339 -1.3899905681610107 0.03722032532095909
v -0.2573769986629486 -1.326335072517395 0.03729645162820816
v -0.25412020087242126 -1.4894989728927612 0.03711075708270073
v -0.003969079814851284 -1.313644528388977 0.040109552443027496
v 0.02035169117152691 -1.369271993637085 0.03731658309698105
v -0.013439444825053215 -1.4522970914840698 0.03725891560316086
v -0.08275442570447922 -0.3752562403678894 0.02435445599257946
v -0.08275442570447922 -0.3752562403678894 0.02435445599257946
v -0.2590053081512451 -0.373988538980484 0.015078281983733177
v -0.2590053081512451 -0.373988538980484 0.015078281983733177
v -0.2590053081512451 -0.373988538980484 0.015078281983733177
v 0.18679110705852509 -0.18620775640010834 0.022978749126195908
v -0.25387024879455566 -0.1848105639219284 0.020602522417902946
v -0.09254932403564453 -0.34640824794769287 0.022512827068567276
v -0.09254932403564453 -0.34640824794769287 0.022512827068567276
v -0.08760003745555878 -0.2909657955169678 0.022756721824407578
v -0.08760003745555878 -0.2909657955169678 0.022756721824407578
v -0.09374821186065674 -0.37511587142944336 0.024823496118187904
v -0.09374821186065674 -0.37511587142944336 0.024823496118187904
v -0.09374821186065674 -0.37511587142944336 0.024823496118187904
v -0.05945258215069771 -0.22721493244171143 0.022754987701773643
v -0.253871351480484 -0.22899720072746277 0.020601380616426468
vt 0.6496970653533936 0.3624424934387207
vt 0.6625629663467407 0.3624396324157715
vt 0.6516261100769043 0.06013530492782593
vt 0.6602362394332886 0.06013524532318115
vt 0.8428087830543518 0.4723937511444092
vt 0.8602411150932312 0.0293157696723938
vt 0.8030181527137756 0.3617140054702759
vt 0.8079299926757812 0.1346573829650879
vt 0.680869996547699 0.3621862530708313
vt 0.048182666301727295 0.7878401875495911
vt 0.23960857093334198 0.04149186611175537
vt 0.5243244171142578 0.6433409452438354
vt 0.7665567398071289 0.36513835191726685
vt 0.9608059525489807 0.2992320656776428
vt 0.8327627778053284 0.3186200261116028
vt 0.8214259743690491 0.3583129644393921
vt 0.6801744699478149 0.06013524532318115
vt 0.8620781898498535 0.4690675735473633
vt 0.21068492531776428 0.7729282379150391
vt 0.04862941801548004 0.04166078567504883
vt 0.7799686789512634 0.06572902202606201
vt 0.9558370113372803 0.4749947786331177
vt 0.9636676907539368 0.3274357318878174
vt 0.9624722599983215 0.3623958230018616
vt 0.8557564616203308 0.28993600606918335
vt 0.8114389181137085 0.3776426315307617
vt 0.8181347846984863 0.11980831623077393
vt 0.8302271366119385 0.40357792377471924
vt 0.8397932648658752 0.09621739387512207
vt 0.6766654849052429 0.4491443634033203
vt 0.7644711136817932 0.4480617642402649
vt 0.15722526609897614 0.017206668853759766
vt 0.3569711446762085 0.01720660924911499
vt 0.6506339311599731 0.4530423879623413
vt 0.6617452502250671 0.45304054021835327
vt 0.8637358546257019 0.28472596406936646
vt 0.6803568005561829 0.2116464376449585
vt 0.23893237113952637 0.06542813777923584
vt 0.5276534557342529 0.4989229440689087
vt 0.04370296001434326 0.06695824861526489
vt 0.6795859336853027 0.4330326318740845
vt 0.8501695990562439 0.3954300880432129
vt 0.7638570666313171 0.4326673150062561
vt 0.7733540534973145 0.2158348560333252
vt 0.9596036076545715 0.4085708260536194
vt 0.9626128077507019 0.3111545443534851
vt 0.963400661945343 0.3448624610900879
vt 0.9614846110343933 0.37882447242736816
vt 0.9584655165672302 0.2935726046562195
vt 0.8299399018287659 0.36896854639053345
vt 0.8230978846549988 0.3411112427711487
vt 0.8452016115188599 0.3007921576499939
vt 0.16040748357772827 0.027762174606323242
vt 0.6732982397079468 0.4557943344116211
vt 0.24215586483478546 0.027397751808166504
vt 0.5141879320144653 0.7291469573974609
vt 0.7646508812904358 0.45351850986480713
vt 0.042227208614349365 0.11240482330322266
vt 0.23872728645801544 0.11338502168655396
vt 0.24960194528102875 0.04146379232406616
vt 0.2645944654941559 0.04146385192871094
vt 0.5282533764839172 0.3667280077934265
vt 0.7840120792388916 0.3665653467178345
vt 0.9761119484901428 0.22641503810882568
vt 0.9806748628616333 0.29000115394592285
vt 0.8109113574028015 0.187558114528656
vt 0.8120912909507751 0.30951201915740967
vt 0.013364449143409729 0.03601795434951782
vt 0.5008319616317749 0.03601789474487305
vt 0.5122923851013184 0.06684625148773193
vt 0.7995786070823669 0.06666290760040283
vt 0.9745252728462219 0.4761640429496765
vt 0.9915111064910889 0.040788352489471436
vt 0.9856116771697998 0.19079095125198364
vt 0.985995352268219 0.32648420333862305
vt 0.9832134246826172 0.36360687017440796
vt 0.9871374368667603 0.15359538793563843
vt 0.8342416286468506 0.22882163524627686
vt 0.8400325775146484 0.2712201476097107
vt 0.5384151339530945 0.450710654258728
vt 0.7739608883857727 0.45056116580963135
vt 0.6488020420074463 0.447674036026001
vt 0.6635701060295105 0.4476698637008667
vt 0.8463531136512756 0.2387765645980835
vt 0.8532130718231201 0.26273107528686523
vt 0.6510978937149048 0.2117137908935547
vt 0.660963773727417 0.2117130160331726
vt 0.2495402991771698 0.06540882587432861
vt 0.26465609669685364 0.06540882587432861
vt 0.008976012468338013 0.0644460916519165
vt 0.505220353603363 0.0644460916519165
vt 0.5353556871414185 0.43521034717559814
vt 0.7769998908042908 0.43505704402923584
vt 0.5194306373596191 0.21701639890670776
vt 0.7926379442214966 0.21684229373931885
vt 0.9785555005073547 0.41006267070770264
vt 0.9878776669502258 0.10691255331039429
vt 0.9822382926940918 0.21038818359375
vt 0.9849085211753845 0.3066284656524658
vt 0.9850091338157654 0.34559887647628784
vt 0.9868404269218445 0.17169034481048584
vt 0.9813631176948547 0.38015270233154297
vt 0.9872109293937683 0.13694679737091064
vt 0.9701725244522095 0.23510313034057617
vt 0.9757789969444275 0.28068506717681885
vt 0.8024558424949646 0.33850252628326416
vt 0.804689884185791 0.157648503780365
vt 0.822150707244873 0.21216893196105957
vt 0.826098620891571 0.28636443614959717
vt 0.017247557640075684 0.7995786070823669
vt 0.49694889783859253 0.7995785474777222
vt 0.21972250938415527 0.7802349925041199
vt 0.2944739758968353 0.7802349925041199
vt 0.24950841069221497 0.027751803398132324
vt 0.26468804478645325 0.027751803398132324
vt 0.5395295023918152 0.4558113217353821
vt 0.7728531956672668 0.45566344261169434
vt 0.24945935606956482 0.1139342188835144
vt 0.264737069606781 0.11393427848815918
vt 0.007929682731628418 0.1119922399520874
vt 0.5062667727470398 0.11199218034744263
vt 0.16521313786506653 0.04053497314453125
vt 0.9714038968086243 0.6500607132911682
vt 0.16365008056163788 0.06563127040863037
vt 0.9841578006744385 0.49778199195861816
vt 0.16532662510871887 0.027646780014038086
vt 0.6780322194099426 0.4540085196495056
vt 0.9686632752418518 0.7291469573974609
vt 0.15129472315311432 0.09424108266830444
vt 0.23895174264907837 0.09333181381225586
vt 0.24960194528102875 0.09324276447296143
vt 0.26459449529647827 0.09324276447296143
vt 0.6313896775245667 0.36221325397491455
vt 0.46601372957229614 0.7878401875495911
vt 0.27458786964416504 0.041491925716400146
vt 0.5239561200141907 0.8389967679977417
vt 0.5457068085670471 0.36527812480926514
vt 0.9574426412582397 0.21495038270950317
vt 0.832496702671051 0.1808992624282837
vt 0.8258218169212341 0.14016234874725342
vt 0.6316878199577332 0.060161590576171875
vt 0.8789973258972168 0.034845948219299316
vt 0.30351153016090393 0.7729282379150391
vt 0.4655669927597046 0.04166072607040405
vt 0.5319011211395264 0.0658867359161377
vt 0.9728129506111145 0.039790570735931396
vt 0.9635432958602905 0.1872662901878357
vt 0.9663949608802795 0.1524021029472351
vt 0.8520225882530212 0.21204769611358643
vt 0.6357085704803467 0.4491657018661499
vt 0.5479015707969666 0.44819867610931396
vt 0.8593466281890869 0.21814477443695068
vt 0.6317049264907837 0.21167290210723877
vt 0.27526408433914185 0.06542813777923584
vt 0.5272851586341858 0.9834151268005371
vt 0.47049349546432495 0.06695824861526489
vt 0.6327669024467468 0.43305790424346924
vt 0.8586609959602356 0.10661453008651733
vt 0.5484954118728638 0.4328033924102783
vt 0.5387132167816162 0.2159835696220398
vt 0.9688804745674133 0.10620498657226562
vt 0.9606147408485413 0.20331650972366333
vt 0.9652916789054871 0.1699255108833313
vt 0.9673121571540833 0.13596951961517334
vt 0.9544640183448792 0.22030162811279297
vt 0.8355096578598022 0.13056182861328125
vt 0.8254950642585754 0.1574420928955078
vt 0.8427924513816833 0.20004487037658691
vt 0.35378891229629517 0.027762174606323242
vt 0.6390846967697144 0.4558113217353821
vt 0.27204054594039917 0.027397751808166504
vt 0.5138192772865295 0.7531906962394714
vt 0.547728955745697 0.4536557197570801
vt 0.4719693064689636 0.11240482330322266
vt 0.2754691243171692 0.11338502168655396
vt 0.3489832580089569 0.040534913539886475
vt 0.9710352420806885 0.8322772979736328
vt 0.35054630041122437 0.06563127040863037
vt 0.9837895631790161 0.9845554828643799
vt 0.34886980056762695 0.02764672040939331
vt 0.6343482732772827 0.45403164625167847
vt 0.9682949781417847 0.7531906962394714
vt 0.3629017174243927 0.09424108266830444
vt 0.27524468302726746 0.09333181381225586
vn 0.9992586615099863 0.038498407723835 0
vn 0.9992586615099863 0.038498407723835 0
vn 0.9982043671209461 0.05990026260936907 0
vn 0.9982043671209461 0.05990026260936907 0
vn 0.9982043671209461 0.05990026260936907 0
vn 0.9982043671209461 0.05990026260936907 0
vn 0.9003855201799009 0.43509299586452643 0
vn 0.9003855201799009 0.43509299586452643 0
vn 0.6184839268905971 0.04189891543383725 -0.7846796244732336
vn 0.10339688639225536 0.6436806533999029 -0.7582771922740794
vn -0.521280038284905 -0.005599785467301074 -0.8533673090108435
vn -0.521280038284905 -0.005599785467301074 -0.8533673090108435
vn -0.6303998831934411 0.02049999677832145 -0.7759998308001004
vn -0.651297925382062 -0.10729965542535516 -0.7511975747688634
vn 0.5873886903944466 -0.24639524836150367 -0.7708851457782604
vn 0.6290647705290867 0.32908155058510297 -0.7042604969353966
vn 0.6305053707151129 0.040900345093851743 -0.7751065341426312
vn 0.6305053707151129 0.040900345093851743 -0.7751065341426312
vn -0.4190139002851039 0.5688188247627045 -0.707723460091186
vn 0.13220041208652747 -0.5947017988390443 -0.7930024095182544
vn -0.6363185441592337 0.00250007250769738 -0.7714223616129685
vn -0.6363185441592337 0.00250007250769738 -0.7714223616129685
vn -0.621723989314909 0.0031001196632667086 -0.7832302792719573
vn -0.6188006964547689 -0.01970002417331195 -0.7853009659453273
vn 0.5226077934839033 -0.4165061931699783 -0.7439110734764866
vn 0.6003999150879552 0.7996999074417703 0
vn 0.6003999150879552 0.7996999074417703 0
vn 0.8747933215091958 0.48449627928696115 0
vn 0.8747933215091958 0.48449627928696115 0
vn 0.48177187586471915 -0.11169347723137278 -0.8691492545988603
vn -0.6086752434221911 0.13489452047689643 -0.7818682218828468
vn 0.36161126276007816 -0.9323289626762978 0
vn 0.36161126276007816 -0.9323289626762978 0
vn 0.36161126276007816 -0.9323289626762978 0
vn 0.36161126276007816 -0.9323289626762978 0
vn 0.25100445995636017 -0.6876122423470661 -0.6813120909366392
vn 0.6310910983486162 0.03099956267603974 -0.7750890611400935
vn -0.5186071346691555 0.001200016693007521 -0.8550118126845879
vn -0.5186071346691555 0.001200016693007521 -0.8550118126845879
vn 0.15119462496285502 -0.008799686615255459 -0.9884648455548709
vn 0.5854959428062646 0.10539927225848837 -0.8037944353905321
vn 0.4576205794999572 0.24391097711519807 -0.8550385023265519
vn -0.6090145667335043 0.0985023447395145 -0.7870187707972535
vn -0.6353267601639774 0.004100172971405858 -0.7722325403666621
vn -0.6363203584273163 -0.0007000223332432858 -0.7714245986612461
vn -0.6257248052373131 0.004500178283292434 -0.7800309074044086
vn -0.6183806212204183 -0.00229992794064152 -0.7858753830159827
vn -0.6274282904267288 -0.01930087237383071 -0.7784351075701826
vn -0.41498058837257795 -0.6280706495019523 -0.6582692234246902
vn 0.38641107478161324 0.4936141422287058 -0.7791223009758719
vn 0.6452171945353089 -0.12490332403117095 -0.7537200617748936
vn 0.5669006462298474 -0.29540030882212803 -0.7690008549097803
vn 0.23789971619793854 -0.4860994128427207 -0.8408989748280721
vn 0.23789971619793854 -0.4860994128427207 -0.8408989748280721
vn -0.621009953866097 0.05440087313965786 -0.7819125156952477
vn -0.621009953866097 0.05440087313965786 -0.7819125156952477
vn -0.621009953866097 0.05440087313965786 -0.7819125156952477
vn 0.14560626172342592 0.0005000214929367917 -0.989342492024595
vn -0.5184099837388116 0.005200099829338431 -0.8551163942538407
vn -0.9998719989710705 0.015999552293600356 0
vn -0.9998719989710705 0.015999552293600356 0
vn -0.9999927800781817 0.0037999725669047935 0
vn -0.9999927800781817 0.0037999725669047935 0
vn -0.9879141220060279 -0.15500221785851687 0
vn -0.9879141220060279 -0.15500221785851687 0
vn 0.9237412484245285 -0.38301710922502336 0
vn 0.9237412484245285 -0.38301710922502336 0
vn 0.8176407813725736 -0.5757287144449609 0
vn 0.8176407813725736 -0.5757287144449609 0
vn -0.9999999200000136 -0.0003999999578951563 0
vn -0.9999999200000136 -0.0003999999578951563 0
vn -0.9999999200000136 -0.0003999999578951563 0
vn -0.9999999200000136 -0.0003999999578951563 0
vn -0.9999854203189734 0.005399921248115774 0
vn -0.9999854203189734 0.005399921248115774 0
vn -0.9999907551280525 -0.0042999602820683516 0
vn -0.9999907551280525 -0.0042999602820683516 0
vn 0.7915334436981394 -0.6111258524292394 0
vn 0.7915334436981394 -0.6111258524292394 0
vn -0.9982459803880346 0.059202724929953696 0
vn -0.9982459803880346 0.059202724929953696 0
vn 0.9021680534848707 -0.43138475085626243 0
vn 0.9021680534848707 -0.43138475085626243 0
vn 0.39408827828754067 -0.9190725917556033 0
vn 0.39408827828754067 -0.9190725917556033 0
vn 0.9990794091366616 0.042899116997199095 0
vn 0.9990794091366616 0.042899116997199095 0
vn -0.999974795954178 0.007099820870970623 0
vn -0.999974795954178 0.007099820870970623 0
vn 0.9986782041552198 -0.05139887688758478 0
vn 0.9986782041552198 -0.05139887688758478 0
vn -0.9997167303952643 0.023800398479902545 0
vn -0.9997167303952643 0.023800398479902545 0
vn -0.9999999549999987 0.00030000000074923436 0
vn -0.9999999549999987 0.00030000000074923436 0
vn -0.9999898751548101 -0.004499954207228645 0
vn -0.9999898751548101 -0.004499954207228645 0
vn -0.9999898751548101 0.004499954207228645 0
vn -0.9999898751548101 0.004499954207228645 0
vn -0.9999966200169523 0.0025999912828245887 0
vn -0.9999966200169523 0.0025999912828245887 0
vn -0.9999638769561391 -0.008499693103138794 0
vn -0.9999638769561391 -0.008499693103138794 0
vn -0.6107927095383054 -0.7917905442570371 0
vn -0.6107927095383054 -0.7917905442570371 0
vn 0.9842279266283783 -0.17690502662390212 0
vn 0.9842279266283783 -0.17690502662390212 0
vn 0.8875652715330374 -0.46068198224858464 0
vn 0.8875652715330374 -0.46068198224858464 0
vn 0.8392856462570897 0.543690724573097 0
vn 0.8392856462570897 0.543690724573097 0
vn -0.7612998913649499 0.6483999347684385 0
vn -0.7612998913649499 0.6483999347684385 0
vn -0.9988902009709514 0.04709953719743484 0
vn -0.9988902009709514 0.04709953719743484 0
vn -0.9988902009709514 0.04709953719743484 0
vn -0.9988902009709514 0.04709953719743484 0
vn -1 0 0
vn -1 0 0
vn 1 0 0
vn 1 0 0
vn -0.013699933088073327 0.004699977160379053 -0.9998951055226113
vn -0.013699933088073327 0.004699977160379053 -0.9998951055226113
vn -0.007999723197104132 -0.002299920489016626 -0.9999653567971811
vn -0.007999723197104132 -0.002299920489016626 -0.9999653567971811
vn -0.011499592605548132 0.018399347796347994 -0.9997645839749353
vn -0.011499592605548132 0.018399347796347994 -0.9997645839749353
vn -0.011499592605548132 0.018399347796347994 -0.9997645839749353
vn -0.005900243489083532 0.009100375274719612 -0.9999411834186193
vn -0.5197853224026626 0.005999830295216006 -0.8542758457613026
vn -1 0 0
vn -1 0 0
vn 0.6184839268905971 0.04189891543383725 0.7846796244732336
vn 0.10339688639225536 0.6436806533999029 0.7582771922740794
vn -0.521280038284905 -0.005599785467301074 0.8533673090108435
vn -0.521280038284905 -0.005599785467301074 0.8533673090108435
vn -0.6303998831934411 0.02049999677832145 0.7759998308001004
vn -0.651297925382062 -0.10729965542535516 0.7511975747688634
vn 0.5873886903944466 -0.24639524836150367 0.7708851457782604
vn 0.6290647705290867 0.32908155058510297 0.7042604969353966
vn 0.6305053707151129 0.040900345093851743 0.7751065341426312
vn 0.6305053707151129 0.040900345093851743 0.7751065341426312
vn -0.4190139002851039 0.5688188247627045 0.707723460091186
vn 0.13220041208652747 -0.5947017988390443 0.7930024095182544
vn -0.6363185441592337 0.00250007250769738 0.7714223616129685
vn -0.6363185441592337 0.00250007250769738 0.7714223616129685
vn -0.621723989314909 0.0031001196632667086 0.7832302792719573
vn -0.6188006964547689 -0.01970002417331195 0.7853009659453273
vn 0.5226077934839033 -0.4165061931699783 0.7439110734764866
vn 0.48177187586471915 -0.11169347723137278 0.8691492545988603
vn -0.6086752434221911 0.13489452047689643 0.7818682218828468
vn 0.25100445995636017 -0.6876122423470661 0.6813120909366392
vn 0.6310910983486162 0.03099956267603974 0.7750890611400935
vn -0.5186071346691555 0.001200016693007521 0.8550118126845879
vn -0.5186071346691555 0.001200016693007521 0.8550118126845879
vn 0.15119462496285502 -0.008799686615255459 0.9884648455548709
vn 0.5854959428062646 0.10539927225848837 0.8037944353905321
vn 0.4576205794999572 0.24391097711519807 0.8550385023265519
vn -0.6090145667335043 0.0985023447395145 0.7870187707972535
vn -0.6353267601639774 0.004100172971405858 0.7722325403666621
vn -0.6363203584273163 -0.0007000223332432858 0.7714245986612461
vn -0.6257248052373131 0.004500178283292434 0.7800309074044086
vn -0.6183806212204183 -0.00229992794064152 0.7858753830159827
vn -0.6274282904267288 -0.01930087237383071 0.7784351075701826
vn -0.41498058837257795 -0.6280706495019523 0.6582692234246902
vn 0.38641107478161324 0.4936141422287058 0.7791223009758719
vn 0.6452171945353089 -0.12490332403117095 0.7537200617748936
vn 0.5669006462298474 -0.29540030882212803 0.7690008549097803
vn 0.23789971619793854 -0.4860994128427207 0.8408989748280721
vn 0.23789971619793854 -0.4860994128427207 0.8408989748280721
vn -0.621009953866097 0.05440087313965786 0.7819125156952477
vn -0.621009953866097 0.05440087313965786 0.7819125156952477
vn -0.621009953866097 0.05440087313965786 0.7819125156952477
vn 0.14560626172342592 0.0005000214929367917 0.989342492024595
vn -0.5184099837388116 0.005200099829338431 0.8551163942538407
vn -0.013699933088073327 0.004699977160379053 0.9998951055226113
vn -0.013699933088073327 0.004699977160379053 0.9998951055226113
vn -0.007999723197104132 -0.002299920489016626 0.9999653567971811
vn -0.007999723197104132 -0.002299920489016626 0.9999653567971811
vn -0.011499592605548132 0.018399347796347994 0.9997645839749353
vn -0.011499592605548132 0.018399347796347994 0.9997645839749353
vn -0.011499592605548132 0.018399347796347994 0.9997645839749353
vn -0.005900243489083532 0.009100375274719612 0.9999411834186193
vn -0.5197853224026626 0.005999830295216006 0.8542758457613026
f 11/11/11 55/55/55 114/114/114
f 11/11/11 114/114/114 60/60/60
f 22/22/22 18/18/18 42/42/42
f 22/22/22 42/42/42 45/45/45
f 17/17/17 21/21/21 44/44/44
f 17/17/17 44/44/44 37/37/37
f 85/85/85 36/36/36 25/25/25
f 85/85/85 25/25/25 79/79/79
f 14/14/14 25/25/25 36/36/36
f 14/14/14 36/36/36 49/49/49
f 43/43/43 41/41/41 9/9/9
f 43/43/43 9/9/9 13/13/13
f 32/32/32 53/53/53 20/20/20
f 32/32/32 20/20/20 68/68/68
f 31/31/31 30/30/30 41/41/41
f 31/31/31 41/41/41 43/43/43
f 39/39/39 125/125/125 123/123/123
f 39/39/39 123/123/123 12/12/12
f 4/4/4 17/17/17 37/37/37
f 4/4/4 37/37/37 87/87/87
f 87/87/87 37/37/37 9/9/9
f 87/87/87 9/9/9 2/2/2
f 88/88/88 38/38/38 11/11/11
f 88/88/88 11/11/11 60/60/60
f 68/68/68 20/20/20 40/40/40
f 68/68/68 40/40/40 90/90/90
f 59/59/59 19/19/19 10/10/10
f 59/59/59 10/10/10 58/58/58
f 2/2/2 9/9/9 41/41/41
f 2/2/2 41/41/41 83/83/83
f 83/83/83 41/41/41 30/30/30
f 105/105/105 49/49/49 36/36/36
f 105/105/105 36/36/36 85/85/85
f 20/20/20 53/53/53 126/126/126
f 20/20/20 126/126/126 122/122/122
f 28/28/28 42/42/42 18/18/18
f 28/28/28 18/18/18 5/5/5
f 81/81/81 31/31/31 43/43/43
f 81/81/81 43/43/43 93/93/93
f 93/93/93 43/43/43 13/13/13
f 93/93/93 13/13/13 63/63/63
f 63/63/63 13/13/13 44/44/44
f 63/63/63 44/44/44 95/95/95
f 95/95/95 44/44/44 21/21/21
f 95/95/95 21/21/21 71/71/71
f 47/47/47 24/24/24 16/16/16
f 47/47/47 16/16/16 51/51/51
f 24/24/24 48/48/48 50/50/50
f 24/24/24 50/50/50 16/16/16
f 72/72/72 22/22/22 45/45/45
f 72/72/72 45/45/45 96/96/96
f 102/102/102 96/96/96 45/45/45
f 102/102/102 45/45/45 48/48/48
f 46/46/46 23/23/23 15/15/15
f 46/46/46 15/15/15 52/52/52
f 23/23/23 47/47/47 51/51/51
f 23/23/23 51/51/51 15/15/15
f 48/48/48 45/45/45 42/42/42
f 48/48/48 42/42/42 50/50/50
f 14/14/14 46/46/46 52/52/52
f 14/14/14 52/52/52 25/25/25
f 65/65/65 99/99/99 46/46/46
f 65/65/65 46/46/46 14/14/14
f 99/99/99 75/75/75 23/23/23
f 99/99/99 23/23/23 46/46/46
f 75/75/75 100/100/100 47/47/47
f 75/75/75 47/47/47 23/23/23
f 100/100/100 76/76/76 24/24/24
f 100/100/100 24/24/24 47/47/47
f 76/76/76 102/102/102 48/48/48
f 76/76/76 48/48/48 24/24/24
f 65/65/65 14/14/14 49/49/49
f 65/65/65 49/49/49 105/105/105
f 16/16/16 50/50/50 26/26/26
f 16/16/16 26/26/26 7/7/7
f 50/50/50 42/42/42 28/28/28
f 50/50/50 28/28/28 26/26/26
f 118/118/118 112/112/112 19/19/19
f 118/118/118 19/19/19 59/59/59
f 54/54/54 30/30/30 127/127/127
f 35/35/35 83/83/83 30/30/30
f 35/35/35 30/30/30 54/54/54
f 13/13/13 9/9/9 37/37/37
f 13/13/13 37/37/37 44/44/44
f 88/88/88 131/131/131 130/130/130
f 88/88/88 130/130/130 38/38/38
f 38/38/38 130/130/130 129/129/129
f 38/38/38 129/129/129 124/124/124
f 58/58/58 10/10/10 110/110/110
f 58/58/58 110/110/110 120/120/120
f 19/19/19 112/112/112 110/110/110
f 19/19/19 110/110/110 10/10/10
f 40/40/40 58/58/58 120/120/120
f 40/40/40 120/120/120 90/90/90
f 57/57/57 31/31/31 81/81/81
f 57/57/57 81/81/81 117/117/117
f 25/25/25 52/52/52 109/109/109
f 25/25/25 109/109/109 79/79/79
f 51/51/51 16/16/16 7/7/7
f 51/51/51 7/7/7 106/106/106
f 15/15/15 51/51/51 106/106/106
f 15/15/15 106/106/106 67/67/67
f 52/52/52 15/15/15 67/67/67
f 52/52/52 67/67/67 109/109/109
f 123/123/123 128/128/128 56/56/56
f 123/123/123 56/56/56 12/12/12
f 122/122/122 124/124/124 40/40/40
f 122/122/122 40/40/40 20/20/20
f 127/127/127 30/30/30 31/31/31
f 127/127/127 31/31/31 57/57/57
f 124/124/124 129/129/129 58/58/58
f 124/124/124 58/58/58 40/40/40
f 129/129/129 130/130/130 59/59/59
f 129/129/129 59/59/59 58/58/58
f 130/130/130 131/131/131 118/118/118
f 130/130/130 118/118/118 59/59/59
f 135/135/135 61/61/61 115/115/115
f 135/135/135 115/115/115 171/171/171
f 146/146/146 161/161/161 158/158/158
f 146/146/146 158/158/158 142/142/142
f 141/141/141 153/153/153 160/160/160
f 141/141/141 160/160/160 145/145/145
f 84/84/84 78/78/78 149/149/149
f 84/84/84 149/149/149 152/152/152
f 138/138/138 165/165/165 152/152/152
f 138/138/138 152/152/152 149/149/149
f 159/159/159 137/137/137 133/133/133
f 159/159/159 133/133/133 157/157/157
f 33/33/33 69/69/69 144/144/144
f 33/33/33 144/144/144 169/169/169
f 151/151/151 159/159/159 157/157/157
f 151/151/151 157/157/157 150/150/150
f 155/155/155 136/136/136 177/177/177
f 155/155/155 177/177/177 179/179/179
f 3/3/3 86/86/86 153/153/153
f 3/3/3 153/153/153 141/141/141
f 86/86/86 1/1/1 133/133/133
f 86/86/86 133/133/133 153/153/153
f 89/89/89 61/61/61 135/135/135
f 89/89/89 135/135/135 154/154/154
f 69/69/69 91/91/91 156/156/156
f 69/69/69 156/156/156 144/144/144
f 175/175/175 174/174/174 134/134/134
f 175/175/175 134/134/134 143/143/143
f 1/1/1 82/82/82 157/157/157
f 1/1/1 157/157/157 133/133/133
f 82/82/82 150/150/150 157/157/157
f 104/104/104 84/84/84 152/152/152
f 104/104/104 152/152/152 165/165/165
f 144/144/144 176/176/176 180/180/180
f 144/144/144 180/180/180 169/169/169
f 29/29/29 6/6/6 142/142/142
f 29/29/29 142/142/142 158/158/158
f 80/80/80 92/92/92 159/159/159
f 80/80/80 159/159/159 151/151/151
f 92/92/92 62/62/62 137/137/137
f 92/92/92 137/137/137 159/159/159
f 62/62/62 94/94/94 160/160/160
f 62/62/62 160/160/160 137/137/137
f 94/94/94 70/70/70 145/145/145
f 94/94/94 145/145/145 160/160/160
f 163/163/163 167/167/167 140/140/140
f 163/163/163 140/140/140 148/148/148
f 148/148/148 140/140/140 166/166/166
f 148/148/148 166/166/166 164/164/164
f 73/73/73 97/97/97 161/161/161
f 73/73/73 161/161/161 146/146/146
f 103/103/103 164/164/164 161/161/161
f 103/103/103 161/161/161 97/97/97
f 162/162/162 168/168/168 139/139/139
f 162/162/162 139/139/139 147/147/147
f 147/147/147 139/139/139 167/167/167
f 147/147/147 167/167/167 163/163/163
f 164/164/164 166/166/166 158/158/158
f 164/164/164 158/158/158 161/161/161
f 138/138/138 149/149/149 168/168/168
f 138/138/138 168/168/168 162/162/162
f 64/64/64 138/138/138 162/162/162
f 64/64/64 162/162/162 98/98/98
f 98/98/98 162/162/162 147/147/147
f 98/98/98 147/147/147 74/74/74
f 74/74/74 147/147/147 163/163/163
f 74/74/74 163/163/163 101/101/101
f 101/101/101 163/163/163 148/148/148
f 101/101/101 148/148/148 77/77/77
f 77/77/77 148/148/148 164/164/164
f 77/77/77 164/164/164 103/103/103
f 64/64/64 104/104/104 165/165/165
f 64/64/64 165/165/165 138/138/138
f 140/140/140 8/8/8 27/27/27
f 140/140/140 27/27/27 166/166/166
f 166/166/166 27/27/27 29/29/29
f 166/166/166 29/29/29 158/158/158
f 119/119/119 175/175/175 143/143/143
f 119/119/119 143/143/143 113/113/113
f 170/170/170 181/181/181 150/150/150
f 34/34/34 170/170/170 150/150/150
f 34/34/34 150/150/150 82/82/82
f 137/137/137 160/160/160 153/153/153
f 137/137/137 153/153/153 133/133/133
f 89/89/89 154/154/154 184/184/184
f 89/89/89 184/184/184 132/132/132
f 154/154/154 178/178/178 183/183/183
f 154/154/154 183/183/183 184/184/184
f 174/174/174 121/121/121 111/111/111
f 174/174/174 111/111/111 134/134/134
f 143/143/143 134/134/134 111/111/111
f 143/143/143 111/111/111 113/113/113
f 156/156/156 91/91/91 121/121/121
f 156/156/156 121/121/121 174/174/174
f 173/173/173 116/116/116 80/80/80
f 173/173/173 80/80/80 151/151/151
f 149/149/149 78/78/78 108/108/108
f 149/149/149 108/108/108 168/168/168
f 167/167/167 107/107/107 8/8/8
f 167/167/167 8/8/8 140/140/140
f 139/139/139 66/66/66 107/107/107
f 139/139/139 107/107/107 167/167/167
f 168/168/168 108/108/108 66/66/66
f 168/168/168 66/66/66 139/139/139
f 177/177/177 136/136/136 172/172/172
f 177/177/177 172/172/172 182/182/182
f 176/176/176 144/144/144 156/156/156
f 176/176/176 156/156/156 178/178/178
f 181/181/181 173/173/173 151/151/151
f 181/181/181 151/151/151 150/150/150
f 178/178/178 156/156/156 174/174/174
f 178/178/178 174/174/174 183/183/183
f 183/183/183 174/174/174 175/175/175
f 183/183/183 175/175/175 184/184/184
f 184/184/184 175/175/175 119/119/119
f 184/184/184 119/119/119 132/132/132
